<svg width="24" height="23" viewBox="0 0 24 23" fill="none" xmlns="http://www.w3.org/2000/svg">
<path fill-rule="evenodd" clip-rule="evenodd" d="M9.32695 14.632C9.19174 14.4969 9.00838 14.4209 8.8172 14.4209C8.62601 14.4209 8.44266 14.4969 8.30745 14.632L2.40099 20.5385V16.547C2.40099 16.3558 2.32503 16.1724 2.18981 16.0372C2.0546 15.902 1.87121 15.826 1.67999 15.826C1.48877 15.826 1.30538 15.902 1.17016 16.0372C1.03495 16.1724 0.958984 16.3558 0.958984 16.547V22.279C0.958984 22.4702 1.03495 22.6536 1.17016 22.7888C1.30538 22.924 1.48877 23 1.67999 23H7.41196C7.60318 23 7.78657 22.924 7.92179 22.7888C8.057 22.6536 8.13297 22.4702 8.13297 22.279C8.13297 22.0878 8.057 21.9044 7.92179 21.7692C7.78657 21.634 7.60318 21.558 7.41196 21.558H3.42049L9.32695 15.6515C9.46211 15.5163 9.53805 15.333 9.53805 15.1418C9.53805 14.9506 9.46211 14.7672 9.32695 14.632ZM15.591 8.36796C15.7262 8.50313 15.9096 8.57906 16.1008 8.57906C16.292 8.57906 16.4753 8.50313 16.6105 8.36796L22.517 2.4615V6.45298C22.517 6.6442 22.5929 6.82759 22.7282 6.9628C22.8634 7.09802 23.0468 7.17398 23.238 7.17398C23.4292 7.17398 23.6126 7.09802 23.7478 6.9628C23.883 6.82759 23.959 6.6442 23.959 6.45298V0.721003C23.959 0.529781 23.883 0.346391 23.7478 0.211177C23.6126 0.0759626 23.4292 0 23.238 0H17.506C17.3148 2.84943e-09 17.1314 0.0759626 16.9962 0.211177C16.861 0.346391 16.785 0.529781 16.785 0.721003C16.785 0.912225 16.861 1.09562 16.9962 1.23083C17.1314 1.36604 17.3148 1.44201 17.506 1.44201H21.4975L15.591 7.34846C15.4559 7.48367 15.3799 7.66703 15.3799 7.85821C15.3799 8.0494 15.4559 8.23275 15.591 8.36796Z" fill="#444CE7"/>
</svg>
