<svg width="59" height="167" viewBox="0 0 59 167" fill="none" xmlns="http://www.w3.org/2000/svg">
<g clip-path="url(#clip0_2314_45109)">
<path d="M59.4313 138.852V133.728L58.0145 132.939C57.6146 135.363 54.7695 136.953 52.3929 137.285L36.191 146.766L29.1297 149.316L6.56347 137.662L7.08906 137.365C5.15807 136.461 4.11831 134.403 3.07855 132.516L1.5589 133.431L0.65625 133.682V138.932C0.71606 139.528 0.931102 140.099 1.27994 140.587C1.62877 141.074 2.09922 141.462 2.64437 141.711L25.2449 154.772C26.732 155.527 28.3761 155.921 30.0438 155.921C31.7115 155.921 33.3556 155.527 34.8427 154.772L57.4432 141.711C57.9807 141.467 58.4461 141.088 58.7944 140.611C59.1427 140.134 59.3621 139.576 59.4313 138.989C59.4313 138.989 59.4313 138.897 59.4313 138.852Z" fill="url(#paint0_linear_2314_45109)"/>
<path opacity="0.3" d="M52.3921 137.329L36.1901 146.764L30.043 148.983V155.914C31.7138 155.948 33.3658 155.555 34.8419 154.77L57.4424 141.709C57.9798 141.465 58.4452 141.086 58.7935 140.61C59.1419 140.133 59.3612 139.574 59.4305 138.987C59.4305 138.987 59.4305 138.896 59.4305 138.85V133.726L58.128 133.006H57.9908C57.5567 135.385 54.7459 136.952 52.3921 137.329Z" fill="#0F054C"/>
<path d="M25.2449 149.568L2.64437 136.507C-0.00645494 134.974 -0.00645494 132.481 2.64437 130.96L25.2449 117.887C26.732 117.132 28.3761 116.738 30.0438 116.738C31.7115 116.738 33.3556 117.132 34.8427 117.887L57.4432 130.96C60.0826 132.481 60.0826 134.974 57.4432 136.507L34.8427 149.568C33.354 150.318 31.7105 150.708 30.0438 150.708C28.3771 150.708 26.7336 150.318 25.2449 149.568Z" fill="url(#paint1_linear_2314_45109)"/>
<g opacity="0.6">
<path d="M25.2449 149.568L2.64437 136.507C-0.00645494 134.974 -0.00645494 132.481 2.64437 130.96L25.2449 117.887C26.732 117.132 28.3761 116.738 30.0438 116.738C31.7115 116.738 33.3556 117.132 34.8427 117.887L57.4432 130.96C60.0826 132.481 60.0826 134.974 57.4432 136.507L34.8427 149.568C33.354 150.318 31.7105 150.708 30.0438 150.708C28.3771 150.708 26.7336 150.318 25.2449 149.568Z" fill="#3E3EFF"/>
</g>
<path d="M30.0434 145.268C28.5639 145.302 27.1004 144.956 25.7929 144.262L3.18099 131.201C2.65117 131.011 2.19292 130.662 1.86895 130.201C1.54498 129.741 1.37109 129.191 1.37109 128.628C1.37109 128.064 1.54498 127.515 1.86895 127.054C2.19292 126.593 2.65117 126.244 3.18099 126.054L25.7929 112.993C27.1136 112.322 28.5738 111.973 30.0548 111.973C31.5359 111.973 32.9961 112.322 34.3167 112.993L56.9058 126.054C57.4356 126.244 57.8939 126.593 58.2178 127.054C58.5418 127.515 58.7157 128.064 58.7157 128.628C58.7157 129.191 58.5418 129.741 58.2178 130.201C57.8939 130.662 57.4356 131.011 56.9058 131.201L34.3053 144.262C32.9944 144.958 31.5267 145.304 30.0434 145.268ZM30.0434 112.353C28.6267 112.323 27.2261 112.658 25.9758 113.325L3.37523 126.397C2.87036 126.513 2.41953 126.796 2.09661 127.201C1.77369 127.606 1.59782 128.109 1.59782 128.628C1.59782 129.146 1.77369 129.649 2.09661 130.054C2.41953 130.459 2.87036 130.743 3.37523 130.858L25.9758 143.919C27.2335 144.561 28.6256 144.896 30.0377 144.896C31.4498 144.896 32.8418 144.561 34.0996 143.919L56.7001 130.858C57.205 130.743 57.6558 130.459 57.9788 130.054C58.3017 129.649 58.4775 129.146 58.4775 128.628C58.4775 128.109 58.3017 127.606 57.9788 127.201C57.6558 126.796 57.205 126.513 56.7001 126.397L34.0996 113.337C32.8534 112.669 31.4564 112.334 30.0434 112.364V112.353Z" fill="#42E8E0"/>
<path opacity="0.4" d="M59.4313 123.619V115.865L58.0145 115.076C57.6146 117.5 54.7695 119.09 52.3929 119.422L36.191 128.903L29.1297 131.453L6.56347 119.811L7.08906 119.502C5.15807 118.598 4.11831 116.54 3.07855 114.664L1.5589 115.533L0.65625 115.819V123.699C0.711128 124.296 0.92438 124.867 1.27393 125.354C1.62348 125.841 2.09662 126.225 2.64437 126.467L25.2449 139.551C26.732 140.306 28.3761 140.7 30.0438 140.7C31.7115 140.7 33.3556 140.306 34.8427 139.551L57.4432 126.467C57.9807 126.223 58.4461 125.844 58.7944 125.367C59.1427 124.89 59.3621 124.332 59.4313 123.745C59.4313 123.745 59.4313 123.653 59.4313 123.619Z" fill="#42E8E0"/>
<path d="M59.4313 116.734V111.599L58.0145 110.822C57.6146 113.235 54.7695 114.824 52.3929 115.156L36.191 124.683L29.1297 127.199L6.56347 115.534L7.08906 115.225C5.15807 114.39 4.08403 112.274 3.07855 110.398L1.5589 111.302L0.65625 111.554V116.815C0.711128 117.411 0.92438 117.983 1.27393 118.469C1.62348 118.956 2.09662 119.34 2.64437 119.582L25.2449 132.689C26.732 133.444 28.3761 133.838 30.0438 133.838C31.7115 133.838 33.3556 133.444 34.8427 132.689L57.4432 119.582C57.9807 119.338 58.4461 118.959 58.7944 118.483C59.1427 118.006 59.3621 117.447 59.4313 116.86C59.4313 116.86 59.4313 116.769 59.4313 116.734Z" fill="url(#paint2_linear_2314_45109)"/>
<path opacity="0.3" d="M52.3941 115.156L36.1921 124.683L30.0449 126.971V133.833C31.7158 133.867 33.3677 133.473 34.8438 132.689L57.4443 119.582C57.9818 119.338 58.4472 118.96 58.7955 118.483C59.1438 118.006 59.3632 117.447 59.4325 116.86C59.4325 116.86 59.4325 116.769 59.4325 116.735V111.599L58.1299 110.879H57.9928C57.5586 113.246 54.7478 114.836 52.3941 115.156Z" fill="#0F054C"/>
<path d="M7.09059 115.237L28.5028 102.862C28.9798 102.623 29.506 102.498 30.0396 102.498C30.5732 102.498 31.0994 102.623 31.5764 102.862L52.623 115.02L52.3945 115.157C54.7711 114.825 57.6161 113.236 58.016 110.822L34.3986 97.67L27.543 95.8516L21.9557 99.1454L3.08008 110.399C4.08556 112.275 5.1596 114.391 7.09059 115.237Z" fill="url(#paint3_linear_2314_45109)"/>
<path opacity="0.3" d="M30.0453 96.5149L27.5202 95.8516L21.9329 99.1454L3.08008 110.399C4.08556 112.275 5.1596 114.391 7.09059 115.237L28.5028 102.862C28.9783 102.613 29.5087 102.487 30.0453 102.496V96.5149Z" fill="#0F054C"/>
<path d="M25.2449 127.439L2.64437 114.389C-0.00645494 112.857 -0.00645494 110.375 2.64437 108.843L25.2449 95.7703C26.732 95.0148 28.3761 94.6211 30.0438 94.6211C31.7115 94.6211 33.3556 95.0148 34.8427 95.7703L57.4432 108.831C60.0712 110.364 60.0712 112.845 57.4432 114.389L34.8427 127.439C33.3556 128.194 31.7115 128.588 30.0438 128.588C28.3761 128.588 26.732 128.194 25.2449 127.439ZM31.5749 97.7031C31.0979 97.4637 30.5717 97.339 30.0381 97.339C29.5045 97.339 28.9783 97.4637 28.5013 97.7031L5.90076 110.718C5.71658 110.782 5.55684 110.902 5.44377 111.06C5.33071 111.219 5.26994 111.41 5.26994 111.605C5.26994 111.8 5.33071 111.99 5.44377 112.149C5.55684 112.308 5.71658 112.427 5.90076 112.491L28.5013 125.552C28.9783 125.791 29.5045 125.916 30.0381 125.916C30.5717 125.916 31.0979 125.791 31.5749 125.552L54.1754 112.491C54.3596 112.427 54.5193 112.308 54.6324 112.149C54.7454 111.99 54.8062 111.8 54.8062 111.605C54.8062 111.41 54.7454 111.219 54.6324 111.06C54.5193 110.902 54.3596 110.782 54.1754 110.718L31.5749 97.7031Z" fill="url(#paint4_linear_2314_45109)"/>
<path d="M54.1772 110.718L31.5767 97.6571C31.0997 97.4177 30.5735 97.293 30.0399 97.293C29.5063 97.293 28.9801 97.4177 28.5031 97.6571L5.9026 110.718C5.34273 111.038 5.14849 111.507 5.34273 111.862C5.46735 111.622 5.66285 111.426 5.9026 111.301L28.5031 98.2976C28.9801 98.0581 29.5063 97.9334 30.0399 97.9334C30.5735 97.9334 31.0997 98.0581 31.5767 98.2976L54.1772 111.358C54.4199 111.483 54.6191 111.679 54.7485 111.919C54.9314 111.507 54.7485 111.038 54.1772 110.718Z" fill="white"/>
<path d="M57.4438 114.39L34.8433 127.44C33.3562 128.195 31.7121 128.589 30.0444 128.589C28.3767 128.589 26.7326 128.195 25.2455 127.44L2.64498 114.39C2.14521 114.161 1.70553 113.818 1.36055 113.389C1.01556 112.961 0.774676 112.458 0.65686 111.92C0.630734 112.575 0.804846 113.223 1.15597 113.777C1.5071 114.331 2.01856 114.764 2.62212 115.019L25.2455 128.114C26.7326 128.87 28.3767 129.264 30.0444 129.264C31.7121 129.264 33.3562 128.87 34.8433 128.114L57.4438 115.019C58.0472 114.765 58.5581 114.331 58.9075 113.777C59.2569 113.223 59.428 112.575 59.3977 111.92C59.2826 112.454 59.0466 112.954 58.7079 113.383C58.3692 113.811 57.9367 114.156 57.4438 114.39Z" fill="white"/>
<path d="M25.8847 127.074L3.2842 114.013C0.999015 112.687 0.999015 110.582 3.2842 109.198L25.8847 96.0918C27.1724 95.4332 28.5978 95.0898 30.0438 95.0898C31.4898 95.0898 32.9152 95.4332 34.2028 96.0918L56.8034 109.198C59.0885 110.525 59.0885 112.687 56.8034 114.013L34.2028 127.074C32.9152 127.733 31.4898 128.076 30.0438 128.076C28.5978 128.076 27.1724 127.733 25.8847 127.074ZM32.2147 97.3384C31.5407 96.994 30.7948 96.8145 30.0381 96.8145C29.2813 96.8145 28.5354 96.994 27.8614 97.3384L5.22662 110.354C4.96714 110.444 4.74229 110.614 4.5832 110.838C4.42411 111.062 4.33865 111.331 4.33865 111.606C4.33865 111.881 4.42411 112.149 4.5832 112.374C4.74229 112.598 4.96714 112.767 5.22662 112.858L27.8614 125.919C28.5354 126.263 29.2813 126.443 30.0381 126.443C30.7948 126.443 31.5407 126.263 32.2147 125.919L54.8152 112.858C55.0747 112.767 55.2996 112.598 55.4586 112.374C55.6177 112.149 55.7032 111.881 55.7032 111.606C55.7032 111.331 55.6177 111.062 55.4586 110.838C55.2996 110.614 55.0747 110.444 54.8152 110.354L32.2147 97.3384Z" fill="url(#paint5_linear_2314_45109)"/>
<path opacity="0.4" d="M31.5764 97.6571C31.0994 97.4177 30.5732 97.293 30.0396 97.293C29.506 97.293 28.9798 97.4177 28.5028 97.6571L5.9023 110.718C5.71812 110.782 5.55838 110.901 5.44531 111.06C5.33225 111.219 5.27148 111.409 5.27148 111.604C5.27148 111.799 5.33225 111.99 5.44531 112.148C5.55838 112.307 5.71812 112.427 5.9023 112.491L28.5028 125.552C28.9798 125.791 29.506 125.916 30.0396 125.916C30.5732 125.916 31.0994 125.791 31.5764 125.552L54.1769 112.491C54.3611 112.427 54.5209 112.307 54.6339 112.148C54.747 111.99 54.8077 111.799 54.8077 111.604C54.8077 111.409 54.747 111.219 54.6339 111.06C54.5209 110.901 54.3611 110.782 54.1769 110.718L31.5764 97.6571Z" fill="#42E8E0"/>
<g style="mix-blend-mode:overlay">
<path d="M54.469 111.363L54.3581 0.0214844H5.22656L5.33745 111.363C5.34724 111.621 5.41078 111.869 5.52083 112.081C5.63089 112.292 5.78307 112.458 5.96008 112.56L28.2867 125.345C28.7593 125.662 29.2807 125.827 29.8093 125.827C30.338 125.827 30.8594 125.662 31.332 125.345L53.8351 112.56C54.0078 112.448 54.1566 112.28 54.2675 112.071C54.3784 111.862 54.4477 111.618 54.469 111.363Z" fill="url(#paint6_linear_2314_45109)" style="mix-blend-mode:lighten"/>
</g>
<g clip-path="url(#clip1_2314_45109)" filter="url(#filter0_b_2314_45109)">
<g style="mix-blend-mode:overlay">
<path d="M54.8733 112.053L54.7624 0.710938H5.63086L5.74175 112.053C5.75154 112.31 5.81507 112.559 5.92513 112.77C6.03519 112.981 6.18737 113.147 6.36438 113.249L28.691 126.034C29.1636 126.351 29.6849 126.516 30.2136 126.516C30.7423 126.516 31.2637 126.351 31.7363 126.034L54.2394 113.249C54.4121 113.138 54.5609 112.97 54.6718 112.76C54.7827 112.551 54.852 112.308 54.8733 112.053Z" fill="url(#paint7_linear_2314_45109)" style="mix-blend-mode:lighten"/>
</g>
</g>
</g>
<defs>
<filter id="filter0_b_2314_45109" x="-2.36914" y="24.6895" width="65.0332" height="109.805" filterUnits="userSpaceOnUse" color-interpolation-filters="sRGB">
<feFlood flood-opacity="0" result="BackgroundImageFix"/>
<feGaussianBlur in="BackgroundImageFix" stdDeviation="4"/>
<feComposite in2="SourceAlpha" operator="in" result="effect1_backgroundBlur_2314_45109"/>
<feBlend mode="normal" in="SourceGraphic" in2="effect1_backgroundBlur_2314_45109" result="shape"/>
</filter>
<linearGradient id="paint0_linear_2314_45109" x1="6.50634" y1="123.549" x2="53.1578" y2="150.456" gradientUnits="userSpaceOnUse">
<stop stop-color="#384BF2"/>
<stop offset="0.23" stop-color="#384BF2"/>
<stop offset="0.68" stop-color="#5200FF"/>
<stop offset="1" stop-color="#5200FF"/>
</linearGradient>
<linearGradient id="paint1_linear_2314_45109" x1="0.65625" y1="133.728" x2="59.4313" y2="133.728" gradientUnits="userSpaceOnUse">
<stop stop-color="#E9E9FD"/>
<stop offset="0.36" stop-color="#D3D2F9"/>
<stop offset="0.71" stop-color="#C5C4F7"/>
<stop offset="1" stop-color="#C0BFF6"/>
</linearGradient>
<linearGradient id="paint2_linear_2314_45109" x1="6.50634" y1="101.421" x2="53.1578" y2="128.327" gradientUnits="userSpaceOnUse">
<stop stop-color="#BCBEFF"/>
<stop offset="0.23" stop-color="#AAADF8"/>
<stop offset="0.68" stop-color="#7C83E5"/>
<stop offset="1" stop-color="#5761D7"/>
</linearGradient>
<linearGradient id="paint3_linear_2314_45109" x1="9.30722" y1="99.6028" x2="50.906" y2="123.597" gradientUnits="userSpaceOnUse">
<stop offset="0.24" stop-color="#5761D7"/>
<stop offset="0.39" stop-color="#7A82E5"/>
<stop offset="0.55" stop-color="#979CF0"/>
<stop offset="0.7" stop-color="#ACAFF8"/>
<stop offset="0.85" stop-color="#B8BAFD"/>
<stop offset="1" stop-color="#BCBEFF"/>
</linearGradient>
<linearGradient id="paint4_linear_2314_45109" x1="0.65625" y1="111.599" x2="59.4313" y2="111.599" gradientUnits="userSpaceOnUse">
<stop stop-color="#E9E9FD"/>
<stop offset="0.36" stop-color="#D3D2F9"/>
<stop offset="0.71" stop-color="#C5C4F7"/>
<stop offset="1" stop-color="#C0BFF6"/>
</linearGradient>
<linearGradient id="paint5_linear_2314_45109" x1="1.55889" y1="111.6" x2="58.5287" y2="111.6" gradientUnits="userSpaceOnUse">
<stop stop-color="#E9E9FD"/>
<stop offset="0.36" stop-color="#D3D2F9"/>
<stop offset="0.71" stop-color="#C5C4F7"/>
<stop offset="1" stop-color="#C0BFF6"/>
</linearGradient>
<linearGradient id="paint6_linear_2314_45109" x1="30.132" y1="0.0214879" x2="30.132" y2="125.708" gradientUnits="userSpaceOnUse">
<stop stop-color="#42E8E0" stop-opacity="0"/>
<stop offset="0.148691" stop-color="#42E8E0"/>
<stop offset="0.216884" stop-color="#37B6BF"/>
<stop offset="0.313791" stop-color="#2C87A1"/>
<stop offset="0.469919" stop-color="#235F87"/>
<stop offset="0.624252" stop-color="#1C3F72"/>
<stop offset="0.728337" stop-color="#162561"/>
<stop offset="0.85" stop-color="#10084E"/>
<stop offset="1" stop-color="#0F054C"/>
</linearGradient>
<linearGradient id="paint7_linear_2314_45109" x1="30.5363" y1="0.710941" x2="30.5363" y2="126.397" gradientUnits="userSpaceOnUse">
<stop stop-color="#42E8E0" stop-opacity="0"/>
<stop offset="0.148691" stop-color="#42E8E0"/>
<stop offset="0.216884" stop-color="#37B6BF"/>
<stop offset="0.313791" stop-color="#2C87A1"/>
<stop offset="0.469919" stop-color="#235F87"/>
<stop offset="0.624252" stop-color="#1C3F72"/>
<stop offset="0.728337" stop-color="#162561"/>
<stop offset="0.85" stop-color="#10084E"/>
<stop offset="1" stop-color="#0F054C"/>
</linearGradient>
<clipPath id="clip0_2314_45109">
<rect x="0.65625" width="58.2723" height="167" rx="29.1362" fill="white"/>
</clipPath>
<clipPath id="clip1_2314_45109">
<rect width="49.034" height="93.8043" fill="white" transform="translate(5.63086 32.6895)"/>
</clipPath>
</defs>
</svg>
