<svg width="16" height="16" viewBox="0 0 16 16" fill="none" xmlns="http://www.w3.org/2000/svg">
<path d="M3.49966 2.5C3.49966 2.36739 3.44698 2.24021 3.35321 2.14645C3.25944 2.05268 3.13226 2 2.99966 2C2.86705 2 2.73987 2.05268 2.6461 2.14645C2.55233 2.24021 2.49966 2.36739 2.49966 2.5V11.293L1.35365 10.146C1.25977 10.0521 1.13243 9.99937 0.999655 9.99937C0.866879 9.99937 0.739542 10.0521 0.645655 10.146C0.551768 10.2399 0.499023 10.3672 0.499023 10.5C0.499023 10.6328 0.551768 10.7601 0.645655 10.854L2.64565 12.853L2.65266 12.86C2.74653 12.9515 2.87278 13.0023 3.00389 13.0011C3.135 13 3.26036 12.9471 3.35265 12.854L5.35266 10.854C5.39914 10.8076 5.43603 10.7525 5.46122 10.6918C5.4864 10.6311 5.49939 10.5661 5.49943 10.5004C5.49948 10.4347 5.48659 10.3696 5.46149 10.3089C5.43639 10.2482 5.39958 10.193 5.35316 10.1465C5.30673 10.1 5.25161 10.0631 5.19093 10.0379C5.13025 10.0128 5.06521 9.99977 4.99951 9.99972C4.93381 9.99968 4.86875 10.0126 4.80803 10.0377C4.74732 10.0628 4.69214 10.0996 4.64565 10.146L3.49966 11.293V2.5ZM6.99965 3.5C6.99965 3.36739 7.05233 3.24021 7.1461 3.14645C7.23987 3.05268 7.36705 3 7.49965 3H14.4997C14.6323 3 14.7594 3.05268 14.8532 3.14645C14.947 3.24021 14.9997 3.36739 14.9997 3.5C14.9997 3.63261 14.947 3.75979 14.8532 3.85355C14.7594 3.94732 14.6323 4 14.4997 4H7.49965C7.36705 4 7.23987 3.94732 7.1461 3.85355C7.05233 3.75979 6.99965 3.63261 6.99965 3.5ZM7.49965 6C7.36705 6 7.23987 6.05268 7.1461 6.14645C7.05233 6.24021 6.99965 6.36739 6.99965 6.5C6.99965 6.63261 7.05233 6.75979 7.1461 6.85355C7.23987 6.94732 7.36705 7 7.49965 7H12.4997C12.6323 7 12.7594 6.94732 12.8532 6.85355C12.947 6.75979 12.9997 6.63261 12.9997 6.5C12.9997 6.36739 12.947 6.24021 12.8532 6.14645C12.7594 6.05268 12.6323 6 12.4997 6H7.49965ZM7.49965 9C7.36705 9 7.23987 9.05268 7.1461 9.14645C7.05233 9.24021 6.99965 9.36739 6.99965 9.5C6.99965 9.63261 7.05233 9.75979 7.1461 9.85355C7.23987 9.94732 7.36705 10 7.49965 10H10.4997C10.6323 10 10.7594 9.94732 10.8532 9.85355C10.947 9.75979 10.9997 9.63261 10.9997 9.5C10.9997 9.36739 10.947 9.24021 10.8532 9.14645C10.7594 9.05268 10.6323 9 10.4997 9H7.49965ZM7.49965 12C7.36705 12 7.23987 12.0527 7.1461 12.1464C7.05233 12.2402 6.99965 12.3674 6.99965 12.5C6.99965 12.6326 7.05233 12.7598 7.1461 12.8536C7.23987 12.9473 7.36705 13 7.49965 13H8.49965C8.63226 13 8.75944 12.9473 8.85321 12.8536C8.94698 12.7598 8.99965 12.6326 8.99965 12.5C8.99965 12.3674 8.94698 12.2402 8.85321 12.1464C8.75944 12.0527 8.63226 12 8.49965 12H7.49965Z" fill="#616161"/>
</svg>
