<svg width="16" height="16" viewBox="0 0 16 16" fill="none" xmlns="http://www.w3.org/2000/svg">
<path d="M3.49966 3.5C3.49966 3.36739 3.44698 3.24021 3.35321 3.14645C3.25944 3.05268 3.13226 3 2.99966 3C2.86705 3 2.73987 3.05268 2.6461 3.14645C2.55233 3.24021 2.49966 3.36739 2.49966 3.5V12.293L1.35365 11.146C1.30717 11.0995 1.25198 11.0626 1.19124 11.0375C1.1305 11.0123 1.0654 10.9994 0.999655 10.9994C0.933911 10.9994 0.868811 11.0123 0.808072 11.0375C0.747332 11.0626 0.692143 11.0995 0.645655 11.146C0.599167 11.1925 0.562291 11.2477 0.537132 11.3084C0.511973 11.3692 0.499023 11.4343 0.499023 11.5C0.499023 11.5657 0.511973 11.6308 0.537132 11.6916C0.562291 11.7523 0.599167 11.8075 0.645655 11.854L2.64565 13.853L2.65266 13.86C2.74653 13.9515 2.87278 14.0023 3.00389 14.0011C3.135 14 3.26036 13.9471 3.35265 13.854L5.35266 11.854C5.44654 11.7602 5.49934 11.633 5.49943 11.5004C5.49953 11.3677 5.44691 11.2404 5.35316 11.1465C5.2594 11.0526 5.13219 10.9998 4.99951 10.9997C4.86683 10.9996 4.73954 11.0522 4.64566 11.146L3.49966 12.293V3.5ZM7.49966 4C7.36705 4 7.23987 3.94732 7.1461 3.85355C7.05233 3.75979 6.99966 3.63261 6.99966 3.5C6.99966 3.36739 7.05233 3.24021 7.1461 3.14645C7.23987 3.05268 7.36705 3 7.49966 3H8.49965C8.63226 3 8.75944 3.05268 8.85321 3.14645C8.94698 3.24021 8.99965 3.36739 8.99965 3.5C8.99965 3.63261 8.94698 3.75979 8.85321 3.85355C8.75944 3.94732 8.63226 4 8.49965 4H7.49966ZM7.49966 7C7.36705 7 7.23987 6.94732 7.1461 6.85355C7.05233 6.75979 6.99966 6.63261 6.99966 6.5C6.99966 6.36739 7.05233 6.24021 7.1461 6.14645C7.23987 6.05268 7.36705 6 7.49966 6H10.4997C10.6323 6 10.7594 6.05268 10.8532 6.14645C10.947 6.24021 10.9997 6.36739 10.9997 6.5C10.9997 6.63261 10.947 6.75979 10.8532 6.85355C10.7594 6.94732 10.6323 7 10.4997 7H7.49966ZM7.49966 10C7.36705 10 7.23987 9.94732 7.1461 9.85355C7.05233 9.75979 6.99966 9.63261 6.99966 9.5C6.99966 9.36739 7.05233 9.24021 7.1461 9.14645C7.23987 9.05268 7.36705 9 7.49966 9H12.4997C12.6323 9 12.7594 9.05268 12.8532 9.14645C12.947 9.24021 12.9997 9.36739 12.9997 9.5C12.9997 9.63261 12.947 9.75979 12.8532 9.85355C12.7594 9.94732 12.6323 10 12.4997 10H7.49966ZM6.99966 12.5C6.99966 12.6326 7.05233 12.7598 7.1461 12.8536C7.23987 12.9473 7.36705 13 7.49966 13H14.4997C14.6323 13 14.7594 12.9473 14.8532 12.8536C14.947 12.7598 14.9997 12.6326 14.9997 12.5C14.9997 12.3674 14.947 12.2402 14.8532 12.1464C14.7594 12.0527 14.6323 12 14.4997 12H7.49966C7.36705 12 7.23987 12.0527 7.1461 12.1464C7.05233 12.2402 6.99966 12.3674 6.99966 12.5Z" fill="#616161"/>
</svg>
