<svg width="18" height="18" viewBox="0 0 18 18" fill="none" xmlns="http://www.w3.org/2000/svg">
<path d="M14.8327 2.33341H13.166V1.50008C13.166 1.27907 13.0782 1.06711 12.9219 0.910826C12.7657 0.754545 12.5537 0.666748 12.3327 0.666748C12.1117 0.666748 11.8997 0.754545 11.7434 0.910826C11.5871 1.06711 11.4993 1.27907 11.4993 1.50008V2.33341H6.49935V1.50008C6.49935 1.27907 6.41155 1.06711 6.25527 0.910826C6.09899 0.754545 5.88703 0.666748 5.66602 0.666748C5.445 0.666748 5.23304 0.754545 5.07676 0.910826C4.92048 1.06711 4.83268 1.27907 4.83268 1.50008V2.33341H3.16602C2.50297 2.33341 1.86709 2.59681 1.39825 3.06565C0.929408 3.53449 0.666016 4.17037 0.666016 4.83342V14.8334C0.666016 15.4965 0.929408 16.1323 1.39825 16.6012C1.86709 17.07 2.50297 17.3334 3.16602 17.3334H14.8327C15.4957 17.3334 16.1316 17.07 16.6005 16.6012C17.0693 16.1323 17.3327 15.4965 17.3327 14.8334V4.83342C17.3327 4.17037 17.0693 3.53449 16.6005 3.06565C16.1316 2.59681 15.4957 2.33341 14.8327 2.33341ZM15.666 14.8334C15.666 15.0544 15.5782 15.2664 15.4219 15.4227C15.2657 15.579 15.0537 15.6667 14.8327 15.6667H3.16602C2.945 15.6667 2.73304 15.579 2.57676 15.4227C2.42048 15.2664 2.33268 15.0544 2.33268 14.8334V9.00008H15.666V14.8334ZM15.666 7.33342H2.33268V4.83342C2.33268 4.6124 2.42048 4.40044 2.57676 4.24416C2.73304 4.08788 2.945 4.00008 3.16602 4.00008H4.83268V4.83342C4.83268 5.05443 4.92048 5.26639 5.07676 5.42267C5.23304 5.57895 5.445 5.66675 5.66602 5.66675C5.88703 5.66675 6.09899 5.57895 6.25527 5.42267C6.41155 5.26639 6.49935 5.05443 6.49935 4.83342V4.00008H11.4993V4.83342C11.4993 5.05443 11.5871 5.26639 11.7434 5.42267C11.8997 5.57895 12.1117 5.66675 12.3327 5.66675C12.5537 5.66675 12.7657 5.57895 12.9219 5.42267C13.0782 5.26639 13.166 5.05443 13.166 4.83342V4.00008H14.8327C15.0537 4.00008 15.2657 4.08788 15.4219 4.24416C15.5782 4.40044 15.666 4.6124 15.666 4.83342V7.33342Z" fill="#9E9E9E"/>
</svg>
