<svg width="37" height="37" viewBox="0 0 37 37" fill="none" xmlns="http://www.w3.org/2000/svg">
<path d="M0.5 8.5C0.5 4.08172 4.08172 0.5 8.5 0.5H28.5C32.9183 0.5 36.5 4.08172 36.5 8.5V28.5C36.5 32.9183 32.9183 36.5 28.5 36.5H8.5C4.08172 36.5 0.5 32.9183 0.5 28.5V8.5Z" fill="white"/>
<path d="M26 21V24.3333C26 24.7754 25.8244 25.1993 25.5118 25.5118C25.1993 25.8244 24.7754 26 24.3333 26H12.6667C12.2246 26 11.8007 25.8244 11.4882 25.5118C11.1756 25.1993 11 24.7754 11 24.3333V21M14.3333 16.8333L18.5 21M18.5 21L22.6667 16.8333M18.5 21V11" stroke="#939596" stroke-width="1.67" stroke-linecap="round" stroke-linejoin="round"/>
<path d="M8.5 1.5H28.5V-0.5H8.5V1.5ZM35.5 8.5V28.5H37.5V8.5H35.5ZM28.5 35.5H8.5V37.5H28.5V35.5ZM1.5 28.5V8.5H-0.5V28.5H1.5ZM8.5 35.5C4.63401 35.5 1.5 32.366 1.5 28.5H-0.5C-0.5 33.4706 3.52944 37.5 8.5 37.5V35.5ZM35.5 28.5C35.5 32.366 32.366 35.5 28.5 35.5V37.5C33.4706 37.5 37.5 33.4706 37.5 28.5H35.5ZM28.5 1.5C32.366 1.5 35.5 4.63401 35.5 8.5H37.5C37.5 3.52944 33.4706 -0.5 28.5 -0.5V1.5ZM8.5 -0.5C3.52944 -0.5 -0.5 3.52944 -0.5 8.5H1.5C1.5 4.63401 4.63401 1.5 8.5 1.5V-0.5Z" fill="white"/>
</svg>
