<svg width="33" height="32" viewBox="0 0 33 32" fill="none" xmlns="http://www.w3.org/2000/svg">
<path d="M0.5 4C0.5 1.79086 2.29086 0 4.5 0H28.5C30.7091 0 32.5 1.79086 32.5 4V28C32.5 30.2091 30.7091 32 28.5 32H4.5C2.29086 32 0.5 30.2091 0.5 28V4Z" fill="white"/>
<path d="M9.74899 7.75C9.74899 7.55109 9.66998 7.36032 9.52932 7.21967C9.38867 7.07902 9.19791 7 8.99899 7C8.80008 7 8.60932 7.07902 8.46866 7.21967C8.32801 7.36032 8.24899 7.55109 8.24899 7.75V20.9395L6.52999 19.219C6.38916 19.0782 6.19816 18.9991 5.99899 18.9991C5.79983 18.9991 5.60882 19.0782 5.46799 19.219C5.32716 19.3598 5.24805 19.5508 5.24805 19.75C5.24805 19.9492 5.32716 20.1402 5.46799 20.281L8.46799 23.2795L8.47849 23.29C8.61931 23.4273 8.80868 23.5034 9.00535 23.5017C9.20202 23.5 9.39005 23.4207 9.52849 23.281L12.5285 20.281C12.5982 20.2114 12.6536 20.1287 12.6913 20.0377C12.7291 19.9466 12.7486 19.8491 12.7487 19.7505C12.7487 19.652 12.7294 19.5544 12.6917 19.4633C12.6541 19.3722 12.5989 19.2895 12.5292 19.2197C12.4596 19.15 12.3769 19.0947 12.2859 19.0569C12.1949 19.0191 12.0973 18.9997 11.9988 18.9996C11.9002 18.9995 11.8026 19.0189 11.7116 19.0565C11.6205 19.0941 11.5377 19.1494 11.468 19.219L9.74899 20.9395V7.75ZM14.999 9.25C14.999 9.05109 15.078 8.86032 15.2187 8.71967C15.3593 8.57902 15.5501 8.5 15.749 8.5H26.249C26.4479 8.5 26.6387 8.57902 26.7793 8.71967C26.92 8.86032 26.999 9.05109 26.999 9.25C26.999 9.44891 26.92 9.63968 26.7793 9.78033C26.6387 9.92098 26.4479 10 26.249 10H15.749C15.5501 10 15.3593 9.92098 15.2187 9.78033C15.078 9.63968 14.999 9.44891 14.999 9.25ZM15.749 13C15.5501 13 15.3593 13.079 15.2187 13.2197C15.078 13.3603 14.999 13.5511 14.999 13.75C14.999 13.9489 15.078 14.1397 15.2187 14.2803C15.3593 14.421 15.5501 14.5 15.749 14.5H23.249C23.4479 14.5 23.6387 14.421 23.7793 14.2803C23.92 14.1397 23.999 13.9489 23.999 13.75C23.999 13.5511 23.92 13.3603 23.7793 13.2197C23.6387 13.079 23.4479 13 23.249 13H15.749ZM15.749 17.5C15.5501 17.5 15.3593 17.579 15.2187 17.7197C15.078 17.8603 14.999 18.0511 14.999 18.25C14.999 18.4489 15.078 18.6397 15.2187 18.7803C15.3593 18.921 15.5501 19 15.749 19H20.249C20.4479 19 20.6387 18.921 20.7793 18.7803C20.92 18.6397 20.999 18.4489 20.999 18.25C20.999 18.0511 20.92 17.8603 20.7793 17.7197C20.6387 17.579 20.4479 17.5 20.249 17.5H15.749ZM15.749 22C15.5501 22 15.3593 22.079 15.2187 22.2197C15.078 22.3603 14.999 22.5511 14.999 22.75C14.999 22.9489 15.078 23.1397 15.2187 23.2803C15.3593 23.421 15.5501 23.5 15.749 23.5H17.249C17.4479 23.5 17.6387 23.421 17.7793 23.2803C17.92 23.1397 17.999 22.9489 17.999 22.75C17.999 22.5511 17.92 22.3603 17.7793 22.2197C17.6387 22.079 17.4479 22 17.249 22H15.749Z" fill="#212121"/>
<path d="M4.5 1H28.5V-1H4.5V1ZM31.5 4V28H33.5V4H31.5ZM28.5 31H4.5V33H28.5V31ZM1.5 28V4H-0.5V28H1.5ZM4.5 31C2.84315 31 1.5 29.6569 1.5 28H-0.5C-0.5 30.7614 1.73858 33 4.5 33V31ZM31.5 28C31.5 29.6569 30.1569 31 28.5 31V33C31.2614 33 33.5 30.7614 33.5 28H31.5ZM28.5 1C30.1569 1 31.5 2.34315 31.5 4H33.5C33.5 1.23858 31.2614 -1 28.5 -1V1ZM4.5 -1C1.73858 -1 -0.5 1.23858 -0.5 4H1.5C1.5 2.34315 2.84315 1 4.5 1V-1Z" fill="#EEEEEE"/>
</svg>
