<svg width="32" height="32" viewBox="0 0 32 32" fill="none" xmlns="http://www.w3.org/2000/svg">
<rect x="0.5" y="0.5" width="31" height="31" rx="3.5" fill="#F5F5F5"/>
<path d="M9.24997 9.25C9.24997 9.05109 9.17095 8.86032 9.0303 8.71967C8.88965 8.57902 8.69888 8.5 8.49997 8.5C8.30106 8.5 8.11029 8.57902 7.96964 8.71967C7.82899 8.86032 7.74997 9.05109 7.74997 9.25V22.4395L6.03097 20.719C5.96124 20.6493 5.87846 20.594 5.78735 20.5562C5.69624 20.5185 5.59859 20.4991 5.49997 20.4991C5.40136 20.4991 5.3037 20.5185 5.2126 20.5562C5.12149 20.594 5.0387 20.6493 4.96897 20.719C4.89924 20.7887 4.84392 20.8715 4.80619 20.9626C4.76845 21.0537 4.74902 21.1514 4.74902 21.25C4.74902 21.3486 4.76845 21.4463 4.80619 21.5374C4.84392 21.6285 4.89924 21.7113 4.96897 21.781L7.96897 24.7795L7.97947 24.79C8.12029 24.9273 8.30965 25.0034 8.50632 25.0017C8.703 25 8.89103 24.9207 9.02947 24.781L12.0295 21.781C12.1703 21.6404 12.2495 21.4496 12.2496 21.2505C12.2498 21.0515 12.1709 20.8606 12.0302 20.7197C11.8896 20.5789 11.6988 20.4997 11.4998 20.4996C11.3007 20.4994 11.1098 20.5784 10.969 20.719L9.24997 22.4395V9.25ZM15.25 10C15.0511 10 14.8603 9.92098 14.7196 9.78033C14.579 9.63968 14.5 9.44891 14.5 9.25C14.5 9.05109 14.579 8.86032 14.7196 8.71967C14.8603 8.57902 15.0511 8.5 15.25 8.5H16.75C16.9489 8.5 17.1396 8.57902 17.2803 8.71967C17.421 8.86032 17.5 9.05109 17.5 9.25C17.5 9.44891 17.421 9.63968 17.2803 9.78033C17.1396 9.92098 16.9489 10 16.75 10H15.25ZM15.25 14.5C15.0511 14.5 14.8603 14.421 14.7196 14.2803C14.579 14.1397 14.5 13.9489 14.5 13.75C14.5 13.5511 14.579 13.3603 14.7196 13.2197C14.8603 13.079 15.0511 13 15.25 13H19.75C19.9489 13 20.1397 13.079 20.2803 13.2197C20.421 13.3603 20.5 13.5511 20.5 13.75C20.5 13.9489 20.421 14.1397 20.2803 14.2803C20.1397 14.421 19.9489 14.5 19.75 14.5H15.25ZM15.25 19C15.0511 19 14.8603 18.921 14.7196 18.7803C14.579 18.6397 14.5 18.4489 14.5 18.25C14.5 18.0511 14.579 17.8603 14.7196 17.7197C14.8603 17.579 15.0511 17.5 15.25 17.5H22.75C22.9489 17.5 23.1397 17.579 23.2803 17.7197C23.421 17.8603 23.5 18.0511 23.5 18.25C23.5 18.4489 23.421 18.6397 23.2803 18.7803C23.1397 18.921 22.9489 19 22.75 19H15.25ZM14.5 22.75C14.5 22.9489 14.579 23.1397 14.7196 23.2803C14.8603 23.421 15.0511 23.5 15.25 23.5H25.75C25.9489 23.5 26.1397 23.421 26.2803 23.2803C26.421 23.1397 26.5 22.9489 26.5 22.75C26.5 22.5511 26.421 22.3603 26.2803 22.2197C26.1397 22.079 25.9489 22 25.75 22H15.25C15.0511 22 14.8603 22.079 14.7196 22.2197C14.579 22.3603 14.5 22.5511 14.5 22.75Z" fill="#212121"/>
<rect x="0.5" y="0.5" width="31" height="31" rx="3.5" stroke="#EEEEEE"/>
</svg>
