<svg width="25" height="24" viewBox="0 0 25 24" fill="none" xmlns="http://www.w3.org/2000/svg">
<path d="M12.9596 0C6.3412 0 0.958984 5.38347 0.958984 11.9994C0.958984 18.6153 6.3412 23.9988 12.9596 23.9988C19.5755 23.9988 24.959 18.6153 24.959 11.9994C24.959 5.38347 19.5755 0 12.9596 0ZM23.1941 11.9994C23.1941 14.3405 22.3991 16.4991 21.0742 18.2241C20.6992 17.9316 20.3005 17.1404 20.6755 16.3204C21.0542 15.4954 21.1529 13.5855 21.0654 12.8418C20.9829 12.0994 20.5967 10.3107 19.548 10.2932C18.5006 10.2782 17.7819 9.93198 17.1594 8.68955C15.8682 6.10468 19.583 5.60846 18.2918 4.17853C17.9306 3.77605 16.0632 5.83095 15.7895 3.09234C15.772 2.8961 15.9582 2.60236 16.2094 2.29738C20.2642 3.65981 23.1941 7.49336 23.1941 11.9994ZM11.5534 1.86615C11.3084 2.34363 10.6622 2.53737 10.2697 2.8961C9.41479 3.66981 9.04731 3.56231 8.58734 4.30478C8.12361 5.04724 6.62869 6.11593 6.62869 6.6534C6.62869 7.19088 7.38365 7.82334 7.76113 7.70085C8.13861 7.57586 9.13481 7.58335 9.71978 7.78834C10.306 7.99583 14.612 8.20332 13.2396 11.8431C12.8046 13.0006 10.8985 12.8056 10.391 14.7217C10.3147 15.003 10.051 16.2042 10.0348 16.5966C10.0035 17.2041 10.4647 19.494 9.87852 19.494C9.2898 19.494 7.70613 17.4453 7.70613 17.0741C7.70613 16.7029 7.29615 15.4017 7.29615 14.2868C7.29615 13.1731 5.39875 13.1906 5.39875 11.7094C5.39875 10.3745 6.42745 9.70949 6.19621 9.06828C5.96997 8.43081 4.16257 8.40956 3.40886 8.33082C4.06788 6.6257 5.17026 5.12748 6.60208 3.99099C8.03391 2.85449 9.74323 2.12095 11.5534 1.86615ZM9.73978 21.7114C10.3547 21.3864 10.4172 20.9664 10.9747 20.9452C11.6122 20.9164 12.1309 20.6964 12.8496 20.5377C13.4871 20.3989 14.6283 19.7515 15.632 19.669C16.4794 19.6002 18.1506 19.7127 18.6006 20.5302C17.3103 21.387 15.8418 21.9387 14.3065 22.1434C12.7712 22.348 11.2095 22.2003 9.73978 21.7114Z" fill="#ffffff"/>
</svg>
