<svg width="24" height="24" viewBox="0 0 24 24" fill="none" xmlns="http://www.w3.org/2000/svg">
<path d="M12.0006 0.000732422C5.38222 0.000732422 0 5.3842 0 12.0001C0 18.616 5.38222 23.9995 12.0006 23.9995C18.6165 23.9995 24 18.616 24 12.0001C24 5.3842 18.6165 0.000732422 12.0006 0.000732422ZM22.2351 12.0001C22.2351 14.3412 21.4401 16.4999 20.1152 18.2248C19.7402 17.9323 19.3415 17.1411 19.7165 16.3211C20.0952 15.4962 20.1939 13.5863 20.1065 12.8426C20.024 12.1001 19.6377 10.3114 18.589 10.2939C17.5416 10.2789 16.8229 9.93272 16.2004 8.69028C14.9092 6.10541 18.624 5.60919 17.3328 4.17926C16.9716 3.77679 15.1042 5.83168 14.8305 3.09307C14.813 2.89683 14.9992 2.6031 15.2505 2.29811C19.3052 3.66054 22.2351 7.49409 22.2351 12.0001ZM10.5944 1.86689C10.3495 2.34436 9.70324 2.5381 9.31077 2.89683C8.45581 3.67054 8.08833 3.56305 7.62835 4.30551C7.16463 5.04797 5.6697 6.11666 5.6697 6.65414C5.6697 7.19161 6.42467 7.82407 6.80215 7.70158C7.17963 7.57659 8.17582 7.58409 8.76079 7.78908C9.34701 7.99657 13.653 8.20406 12.2806 11.8439C11.8456 13.0013 9.93948 12.8063 9.43201 14.7225C9.35576 15.0037 9.09203 16.2049 9.07578 16.5974C9.04453 17.2048 9.50575 19.4947 8.91953 19.4947C8.33082 19.4947 6.74715 17.4461 6.74715 17.0748C6.74715 16.7036 6.33717 15.4024 6.33717 14.2875C6.33717 13.1738 4.43977 13.1913 4.43977 11.7101C4.43977 10.3752 5.46847 9.71023 5.23723 9.06901C5.01099 8.43154 3.20358 8.41029 2.44987 8.33155C3.10889 6.62643 4.21127 5.12821 5.6431 3.99172C7.07492 2.85522 8.78425 2.12168 10.5944 1.86689ZM8.78079 21.7121C9.39576 21.3871 9.45826 20.9671 10.0157 20.9459C10.6532 20.9171 11.1719 20.6972 11.8906 20.5384C12.5281 20.3997 13.6693 19.7522 14.673 19.6697C15.5204 19.601 17.1916 19.7135 17.6416 20.5309C16.3513 21.3877 14.8828 21.9394 13.3475 22.1441C11.8122 22.3487 10.2505 22.201 8.78079 21.7121Z" fill="#424242"/>
</svg>
