<svg xmlns="http://www.w3.org/2000/svg" xmlns:xlink="http://www.w3.org/1999/xlink" viewBox="0 0 997.87 651.45"><defs><style>.cls-1,.cls-11,.cls-12,.cls-13,.cls-5,.cls-6,.cls-9{fill:none;}.cls-2{isolation:isolate;}.cls-3{clip-path:url(#clip-path);}.cls-14,.cls-4{opacity:0.5;}.cls-11,.cls-12,.cls-13,.cls-4{mix-blend-mode:overlay;}.cls-5,.cls-6{stroke:#fff4e9;}.cls-11,.cls-12,.cls-13,.cls-5,.cls-6,.cls-9{stroke-miterlimit:10;}.cls-5{stroke-width:1.18px;}.cls-6{stroke-width:0.6px;}.cls-7{fill:url(#radial-gradient);}.cls-8{opacity:0.25;}.cls-9{stroke:#f2d7c2;stroke-width:33px;stroke-dasharray:121.4 8.85;}.cls-10{opacity:0.4;fill:url(#radial-gradient-2);}.cls-11,.cls-12,.cls-13{stroke:#fff;opacity:0.35;}.cls-11{stroke-width:2.4px;}.cls-12{stroke-width:2px;}.cls-13{stroke-width:1.5px;}.cls-14{fill:url(#radial-gradient-3);}</style><clipPath id="clip-path" transform="translate(198.26 76.31)"><rect class="cls-1" width="750" height="500"/></clipPath><radialGradient id="radial-gradient" cx="585.83" cy="-387.35" r="262.27" gradientTransform="translate(-313.13 109.66) rotate(45)" gradientUnits="userSpaceOnUse"><stop offset="0.53" stop-color="#fff"/><stop offset="0.57" stop-color="#fff" stop-opacity="0.96"/><stop offset="0.64" stop-color="#fff" stop-opacity="0.85"/><stop offset="0.73" stop-color="#fff" stop-opacity="0.67"/><stop offset="0.84" stop-color="#fff" stop-opacity="0.42"/><stop offset="0.96" stop-color="#fff" stop-opacity="0.11"/><stop offset="1" stop-color="#fff" stop-opacity="0"/></radialGradient><radialGradient id="radial-gradient-2" cx="375" cy="250" r="128.73" gradientTransform="translate(8.53 -12.34) rotate(1.91)" gradientUnits="userSpaceOnUse"><stop offset="0.55" stop-color="#fff"/><stop offset="0.64" stop-color="#fffefe" stop-opacity="0.99"/><stop offset="0.7" stop-color="#fffcf9" stop-opacity="0.96"/><stop offset="0.76" stop-color="#fff8f1" stop-opacity="0.9"/><stop offset="0.8" stop-color="#fff3e5" stop-opacity="0.82"/><stop offset="0.85" stop-color="#ffecd6" stop-opacity="0.71"/><stop offset="0.89" stop-color="#ffe3c3" stop-opacity="0.58"/><stop offset="0.92" stop-color="#ffd9ae" stop-opacity="0.43"/><stop offset="0.96" stop-color="#ffcd94" stop-opacity="0.25"/><stop offset="0.99" stop-color="#ffc078" stop-opacity="0.06"/><stop offset="1" stop-color="#ffbe73" stop-opacity="0.02"/></radialGradient><radialGradient id="radial-gradient-3" cx="358.62" cy="240.66" r="233.52" gradientTransform="matrix(-1, 0, 0, 1, 738.12, 0)" gradientUnits="userSpaceOnUse"><stop offset="0" stop-color="#fff" stop-opacity="0"/><stop offset="0.05" stop-color="#fff" stop-opacity="0.11"/><stop offset="0.15" stop-color="#fff" stop-opacity="0.32"/><stop offset="0.26" stop-color="#fff" stop-opacity="0.5"/><stop offset="0.37" stop-color="#fff" stop-opacity="0.65"/><stop offset="0.48" stop-color="#fff" stop-opacity="0.78"/><stop offset="0.6" stop-color="#fff" stop-opacity="0.88"/><stop offset="0.72" stop-color="#fff" stop-opacity="0.95"/><stop offset="0.85" stop-color="#fff" stop-opacity="0.99"/><stop offset="1" stop-color="#fff"/></radialGradient></defs><g class="cls-2"><g id="Layer_2" data-name="Layer 2"><g id="OBJECTS"><g class="cls-3"><g class="cls-4"><polyline class="cls-5" points="182.49 355.29 257.01 355.29 270.01 342.3 322.38 342.3 334.11 354.02 487.12 354.02 498.87 342.27 587.79 342.27 683.2 437.69 806.13 437.69 820.5 452.06 968.25 452.06"/><polyline class="cls-5" points="182.49 374.39 257.01 374.39 270.01 361.39 322.38 361.39 334.11 373.12 487.12 373.12 507.25 352.98 579.52 353.11 695.64 469.22 818.56 469.22 832.93 483.58 980.68 483.58"/><polyline class="cls-5" points="166.59 404.64 241.11 404.64 270.01 375.75 322.38 375.75 334.11 387.47 487.12 387.47 498.87 375.72 587.79 375.72 695.64 483.57 818.56 483.57 832.93 497.94 980.68 497.94"/><polyline class="cls-5" points="165.83 432.5 240.35 432.5 270.01 402.84 322.38 402.84 334.11 414.57 487.12 414.57 498.87 402.82 587.79 402.82 685.8 500.83 808.73 500.83 819.54 511.64 967.29 511.64"/><polyline class="cls-5" points="165.83 445.67 240.35 445.67 270.01 416.01 322.38 416.01 334.11 427.74 487.12 427.74 498.87 415.99 587.79 415.99 682.24 510.44 805.17 510.44 819.54 524.81 967.29 524.81"/><polyline class="cls-6" points="851.28 638.13 776.75 638.13 763.76 651.13 711.38 651.13 699.66 639.4 546.65 639.4 534.9 651.15 445.98 651.15 350.56 555.74 227.64 555.74 213.27 541.37 65.52 541.37"/><polyline class="cls-6" points="851.28 619.04 776.75 619.04 763.76 632.03 711.38 632.03 699.66 620.31 546.65 620.31 526.51 640.44 454.24 640.32 338.13 524.21 215.21 524.21 200.84 509.84 53.09 509.84"/><polyline class="cls-6" points="867.18 588.78 792.65 588.78 763.76 617.68 711.38 617.68 699.66 605.95 546.65 605.95 534.9 617.7 445.98 617.7 338.13 509.86 215.21 509.86 200.84 495.49 53.09 495.49"/><polyline class="cls-6" points="867.94 568.93 793.41 568.93 763.76 598.58 711.38 598.58 699.66 586.86 546.65 586.86 534.9 598.6 445.98 598.6 347.97 500.6 225.04 500.6 214.23 489.79 66.48 489.79"/><polyline class="cls-6" points="867.94 555.76 793.41 555.76 763.76 585.42 711.38 585.42 699.66 573.69 546.65 573.69 534.9 585.44 445.98 585.44 351.52 490.99 228.6 490.99 214.23 476.62 66.48 476.62"/><polyline class="cls-5" points="182.49 297.33 257.01 297.33 270.01 310.32 322.38 310.32 334.11 298.59 487.12 298.59 498.87 310.34 587.79 310.34 683.2 214.93 806.13 214.93 820.5 200.56 968.25 200.56"/><polyline class="cls-5" points="182.49 278.23 257.01 278.23 270.01 291.22 322.38 291.22 334.11 279.5 487.12 279.5 507.25 299.63 579.52 299.51 695.63 183.4 818.56 183.4 832.93 169.03 980.68 169.03"/><polyline class="cls-5" points="166.59 247.98 241.11 247.98 270.01 276.87 322.38 276.87 334.11 265.14 487.12 265.14 498.87 276.89 587.79 276.89 695.63 169.05 818.56 169.05 832.93 154.68 980.68 154.68"/><polyline class="cls-5" points="165.83 218.12 240.35 218.12 270.01 247.77 322.38 247.77 334.11 236.04 487.12 236.04 498.87 247.79 587.79 247.79 685.8 149.78 808.72 149.78 819.54 138.97 967.29 138.97"/><polyline class="cls-5" points="165.83 204.95 240.35 204.95 270.01 234.6 322.38 234.6 334.11 222.88 487.12 222.88 498.87 234.62 587.79 234.62 682.24 140.17 805.17 140.17 819.54 125.8 967.29 125.8"/><polyline class="cls-5" points="182.49 317.34 257.01 317.34 270.01 330.33 322.38 330.33 334.11 318.61 487.12 318.61 498.87 330.35 587.79 330.35 643.28 274.86 835.75 274.86 850.11 260.49 997.87 260.49"/><polyline class="cls-6" points="16.66 161.82 91.18 161.82 104.18 174.81 156.55 174.81 168.28 163.08 321.29 163.08 333.03 174.83 421.96 174.83 517.37 79.42 640.3 79.42 654.66 65.05 802.42 65.05"/><polyline class="cls-6" points="16.66 142.72 91.18 142.72 104.18 155.72 156.55 155.72 168.28 143.99 321.29 143.99 341.42 164.12 413.69 164 529.8 47.89 652.73 47.89 667.1 33.52 814.85 33.52"/><polyline class="cls-6" points="0.76 112.47 75.28 112.47 104.18 141.36 156.55 141.36 168.28 129.63 321.29 129.63 333.03 141.38 421.96 141.38 529.8 33.54 652.73 33.54 667.1 19.17 814.85 19.17"/><polyline class="cls-6" points="0 92.61 74.52 92.61 104.18 122.27 156.55 122.27 168.28 110.54 321.29 110.54 333.03 122.28 421.96 122.28 519.97 24.28 642.89 24.28 653.71 13.47 801.46 13.47"/><polyline class="cls-6" points="0 79.45 74.52 79.45 104.18 109.1 156.55 109.1 168.28 97.37 321.29 97.37 333.03 109.12 421.96 109.12 516.41 14.67 639.34 14.67 653.71 0.3 801.46 0.3"/></g><path class="cls-7" d="M375-12.27C230.15-12.27,112.73,105.16,112.73,250S230.16,512.27,375,512.27,637.27,394.85,637.27,250,519.85-12.27,375-12.27Z" transform="translate(198.26 76.31)"/><g class="cls-8"><circle class="cls-9" cx="375" cy="250" r="165.83" transform="translate(171.04 122.98) rotate(-6.87)"/></g><circle class="cls-10" cx="375" cy="250" r="128.73" transform="matrix(1, -0.03, 0.03, 1, 190.15, 88.93)"/><circle class="cls-11" cx="596.25" cy="378.68" r="141.32" transform="translate(188.41 92.28) rotate(-1.52)"/><circle class="cls-12" cx="802.2" cy="194.59" r="41.78"/><circle class="cls-12" cx="94.75" cy="301" r="151.51" transform="translate(-11.48 460.16) rotate(-87.75)"/><path class="cls-12" d="M276.07,381.5a57.57,57.57,0,1,0-57.57,57.57A57.57,57.57,0,0,0,276.07,381.5Z" transform="translate(198.26 76.31)"/><circle class="cls-13" cx="327.64" cy="183.27" r="48.64"/><path class="cls-14" d="M297.12,462.56l21.33-58.25a163.41,163.41,0,0,0,70.22,9.4,165.88,165.88,0,0,0,36.5-7.21L444,465.6a228.47,228.47,0,0,1-50.17,9.92A225.06,225.06,0,0,1,297.12,462.56Zm163.69-59.81A197.39,197.39,0,0,0,542,305.2l68.86,26.33A271.55,271.55,0,0,1,499.2,465.68Zm77.73-132.47a166.22,166.22,0,0,0,.72-34.49A163.36,163.36,0,0,0,517,165.73l53.4-31.55a224.89,224.89,0,0,1,30.64,96.46,228.8,228.8,0,0,1-1,47.4Zm-389.6-2A224.76,224.76,0,0,1,184.8,125.82l52,33.84a163.22,163.22,0,0,0-26,103.46l0,.42L149,268.69ZM202.47,75.6A260.77,260.77,0,0,1,357.69,5l7,71.67a189.37,189.37,0,0,0-112.74,51.26Z" transform="translate(198.26 76.31)"/></g></g></g></g></svg>