<svg width="210" height="55" viewBox="0 0 210 55" fill="none" xmlns="http://www.w3.org/2000/svg">
<path d="M39.6785 19.7596L39.6396 19.7208L35.6271 15.7082L37.107 10.1847L37.1167 10.1478L37.1672 9.9536L36.9012 9.88757L31.4184 8.41735L29.9424 2.91325V2.88412V2.86081L29.8919 2.66659L29.6763 2.72486L29.6239 2.73846L24.1431 4.20673L20.082 0.165084L19.9169 0L19.7227 0.194217L15.7082 4.20868L10.2022 2.73457H10.1731H10.1478L9.9536 2.68407L9.90505 2.88412L9.89146 2.93656L8.41735 8.41735L2.89383 9.90505H2.85887L2.66465 9.95749L2.73651 10.2255L4.20479 15.7063L0.178679 19.7382L0.157316 19.7596L0 19.9169L0.157316 20.0742L0.196159 20.1131L4.20868 24.1275L2.72874 29.6511L2.71903 29.686L2.66854 29.8802L2.93656 29.9521L8.41735 31.4204L9.8934 36.9264V36.9556V36.9808L9.94584 37.175L10.1595 37.1167L10.2139 37.1032L15.6946 35.6349L19.7382 39.6785L19.9033 39.8436L20.0975 39.6493L24.112 35.6368L29.6336 37.0954H29.6627H29.686L29.8802 37.1459L29.9385 36.9303L29.9521 36.8779L31.4204 31.3951L36.9458 29.9152H36.9808L37.175 29.8647L37.1032 29.5967L35.6329 24.1159L39.6649 20.0839L39.6862 20.0626L39.8436 19.9053L39.6785 19.7596ZM25.8522 32.5022L23.1448 29.62L24.7549 28.6897L26.8019 32.24L25.8522 32.5022ZM26.4484 32.7488L26.2542 32.943L26.1513 32.8323L26.4484 32.7488ZM20.3112 31.2572L22.7952 29.822L25.421 32.6167L23.5391 33.1217L20.3112 31.2572ZM23.003 33.2654L20.1131 34.0423V31.5971L23.003 33.2654ZM25.7221 32.9411L25.9784 33.2149L25.1433 34.0501L24.0168 33.3994L25.7221 32.9411ZM22.869 29.3267L17.8194 23.9469L17.8835 23.8362H21.729L21.4182 24.3742L22.1659 24.1994L24.5587 28.3556L22.869 29.3267ZM21.9465 23.4439H17.8679L15.8461 19.9169L16.0714 19.5285L17.8815 16.3919H21.9601L21.9814 16.4288L23.9955 19.9247L23.9741 19.9616L21.9465 23.4439ZM17.3241 24.0032L14.9353 28.1614L13.2456 27.1903L15.382 20.1247H15.5101L17.4096 23.4264L17.4329 23.4633H16.8114L17.3241 24.0032ZM15.4227 28.8917L19.5168 31.2572L17.0911 32.6614L15.4227 28.8917ZM16.9338 33.2946L16.825 33.2654L16.9007 33.2208L16.9338 33.2946ZM16.7395 32.8595L16.2851 33.1217L13.0261 32.24L14.9838 28.8489L16.7395 32.8595ZM15.8151 33.4053L14.6867 34.0559L13.3854 32.7546L15.8151 33.4053ZM9.46418 11.0082L9.90117 11.0548V13.9079L7.78615 12.6862L9.46418 11.0082ZM7.84635 12.0725L8.16875 10.8761L8.9631 10.9635L7.84635 12.0725ZM9.90505 10.6606H9.82542L9.90505 10.5809V10.6606ZM9.71083 14.2477L6.81506 15.9258L7.59193 13.0358L9.71083 14.2477ZM6.34118 16.1899L4.96418 16.9842L4.65343 15.8189L7.08697 13.3854L6.34118 16.1899ZM4.71752 17.5805L4.99331 18.6079L1.52849 19.4217L4.71752 17.5805ZM5.0943 18.9866L5.28852 19.7169H1.98684L5.0943 18.9866ZM5.54683 20.6724L6.19163 23.1118L5.06323 22.4612L5.54683 20.6724ZM5.47691 18.8973L5.62452 18.8623L5.54683 19.1556L5.47691 18.8973ZM6.34118 23.6381L6.55287 24.4305L5.92361 25.287L4.64761 24.0091L4.95835 22.8438L6.34118 23.6381ZM7.09279 26.4445L6.21493 25.5667L6.68688 24.9219L7.09279 26.4445ZM6.82089 23.9197L6.89858 23.9644L6.85002 24.0285L6.82089 23.9197ZM5.97605 25.8871L7.153 27.0641L3.61826 29.1014L5.97605 25.8871ZM6.98209 24.516L7.2404 24.1606L9.71083 25.588L7.58999 26.8019L6.98209 24.516ZM7.13164 23.6439L6.67717 23.3817L5.80125 20.1131H9.71083L7.13164 23.6439ZM5.73328 18.437L5.37009 18.5224L5.06323 17.3805L6.19163 16.7298L5.73328 18.437ZM6.67134 16.4521L9.90505 14.5876V17.4581L6.16832 18.3341L6.67134 16.4521ZM13.9836 7.33362L16.689 10.2158L15.079 11.1442L13.0261 7.58999L13.9836 7.33362ZM13.3854 7.08697L13.5796 6.89275L13.6845 7.00345L13.3854 7.08697ZM19.5246 8.57855L17.0386 10.0138L14.4148 7.21903L16.2948 6.71407L19.5246 8.57855ZM16.8328 6.57035L19.7208 5.79348V8.23867L16.8328 6.57035ZM14.1137 6.89275L13.8593 6.62085L14.6925 5.78572L15.8209 6.43634L14.1137 6.89275ZM16.9668 10.5091L22.0164 15.8889L21.9543 15.9996H18.1088L18.4195 15.4596L17.6737 15.6364L15.2751 11.486L16.9668 10.5091ZM17.5494 16.1957L15.6267 19.5246L15.3159 18.9866L15.0945 19.7208H10.2935V17.7689L17.4795 16.085L17.5494 16.1957ZM11.6724 31.0339L10.2935 29.6569V25.9279L12.7795 27.3632L11.6724 31.0339ZM11.8569 31.7758L12.0725 31.9894L11.8142 31.9195L11.8569 31.7758ZM10.3032 25.4735V20.1131H14.9683L12.896 26.9767L10.3032 25.4735ZM10.3032 30.2123L11.5423 31.4631L11.4335 31.8205L10.2935 31.5136L10.3032 30.2123ZM11.7093 32.2963L12.4396 32.4905L10.7868 35.3571L11.7093 32.2963ZM11.9968 31.3485L13.1388 27.5632L14.7488 28.4935L12.6862 32.0458L11.9968 31.3485ZM22.533 16.588L22.4165 16.3938H23.038L22.5136 15.8345L24.8986 11.6821L26.5902 12.6532L24.4538 19.7169H24.3256L22.533 16.588ZM24.415 10.9363L20.3112 8.57855L22.7428 7.17436L24.415 10.9363ZM22.904 6.53539L23.0127 6.56452L22.937 6.60919L22.904 6.53539ZM23.0982 6.97044L23.5507 6.70824L26.8019 7.58999L24.8597 10.9791L23.0982 6.97044ZM24.0324 6.43051L25.1588 5.77989L26.4601 7.08114L24.0324 6.43051ZM25.1083 11.3364L27.1593 7.78032L27.8604 8.48144L26.7184 12.2648L25.1083 11.3364ZM27.773 7.84635L28.0313 7.91433L27.9866 8.05999L27.773 7.84635ZM27.4137 7.34333L29.0684 4.47669L28.1439 7.53949L27.4137 7.34333ZM27.0738 7.14912L25.5201 5.58373L29.2102 3.44735L27.0738 7.14912ZM28.3556 3.48425L25.221 5.29435L24.4558 4.52913L28.3556 3.48425ZM24.8597 5.49827L23.4847 6.29262L22.6903 6.07898L22.265 5.1079L24.013 4.64178L24.8597 5.49827ZM23.6944 4.33297L22.1096 4.75637L20.5209 1.1653L23.6944 4.33297ZM22.2087 5.95468L20.6821 5.54683L21.8863 5.22249L22.2087 5.95468ZM20.1131 1.20997L21.7212 4.85542L20.1131 5.28658V1.20997ZM20.1131 5.79543L22.4068 6.40915L22.5835 6.81118L20.1131 8.23673V5.79543ZM19.9189 8.80578L24.5606 11.486L22.2223 15.5373L17.3144 10.3071L19.9189 8.80578ZM19.7246 0.751619V5.28464L16.1511 4.32715L19.7246 0.751619ZM15.8267 4.64761L19.1595 5.541L16.3511 6.29262L14.9741 5.49827L15.8267 4.64761ZM15.3878 4.52913L14.6226 5.29435L11.4879 3.48425L15.3878 4.52913ZM14.3351 5.58179L13.5835 6.33341L11.1519 3.7445L14.3351 5.58179ZM13.3058 6.60337L12.7717 7.14717L11.117 4.27277L13.3058 6.60337ZM10.2935 3.64156L12.4299 7.34333L10.2935 7.91627V3.64156ZM10.2935 8.32218L12.0725 7.84635L10.2935 9.62344V8.32218ZM10.2935 10.1789L12.6862 7.78615L14.6439 11.1752L10.2935 10.7033V10.1789ZM10.2935 11.0975L14.3895 11.5442L10.2935 13.9079V11.0975ZM10.2935 14.372L14.9353 11.6918L17.2736 15.7316L10.2935 17.3669V14.372ZM9.90505 4.40095V8.02115L8.85628 8.30082L9.90505 4.40095ZM8.73975 8.73975L9.90505 8.42706V10.0158L9.3224 10.5984L8.27169 10.4877L8.73975 8.73975ZM8.30082 8.85628L7.87549 10.4411L3.97367 10.0158L8.30082 8.85628ZM7.76867 10.8237L7.34333 12.4299L3.81442 10.3945L7.76867 10.8237ZM3.22205 10.5052L7.14717 12.7717L4.52913 15.3878L3.22205 10.5052ZM4.32715 16.1472L4.60682 17.1921L1.47216 19.0022L4.32715 16.1472ZM5.28464 20.1131L4.7117 22.2495L1.00993 20.1131H5.28464ZM1.47216 20.8336L4.60682 22.6437L4.32715 23.6944L1.47216 20.8336ZM4.52913 24.448L5.69443 25.6133L3.36966 28.7751L4.52913 24.448ZM3.41821 29.6705L7.34333 27.404L8.30082 30.9795L3.41821 29.6705ZM9.90505 35.4348L8.85628 31.535L9.90505 31.8146V35.4348ZM9.90505 31.4087L8.73975 31.096L7.84635 27.773L9.90505 29.8181V31.4087ZM9.90505 29.2626L7.78615 27.1476L9.90505 25.9279V29.2626ZM9.90505 25.2482L7.47152 23.844L9.90505 20.519V25.2482ZM9.90505 19.7227H5.79543L6.05179 18.7672L9.90505 17.8679V19.7227ZM10.2935 31.9215L11.3209 32.1972L10.2935 35.596V31.9215ZM12.7717 32.6983L14.3254 34.2618L10.6237 36.3981L12.7717 32.6983ZM11.4879 36.3593L14.6226 34.5492L15.3878 35.3144L11.4879 36.3593ZM14.9741 34.3375L16.3511 33.5432L17.1454 33.7549L17.5708 34.7259L15.8228 35.194L14.9741 34.3375ZM16.1394 35.5028L17.7223 35.0794L19.3071 38.6705L16.1394 35.5028ZM17.6232 33.8792L19.1517 34.289L17.9456 34.6114L17.6232 33.8792ZM19.713 38.62L18.1068 34.9765L19.713 34.5453V38.62ZM19.713 34.0326L17.4212 33.4189L17.2503 33.0168L19.7208 31.5913L19.713 34.0326ZM19.9072 31.0242L15.2751 28.3556L17.6057 24.3082L22.5291 29.5209L19.9072 31.0242ZM20.1014 39.0783V34.5511L23.6944 35.5086L20.1014 39.0783ZM23.9974 35.1824L20.6647 34.289L23.473 33.5373L24.8597 34.3375L23.9974 35.1824ZM24.4363 35.2989L25.2016 34.5337L28.3556 36.3496L24.4363 35.2989ZM25.489 34.2462L26.2406 33.4946L28.6722 36.0855L25.489 34.2462ZM26.5183 33.2169L27.0524 32.6828L28.7072 35.5494L26.5183 33.2169ZM29.5287 36.1865L27.3923 32.4963L29.5287 31.9137V36.1865ZM29.5287 31.5078L27.773 31.9894L29.5501 30.2123L29.5287 31.5078ZM29.5287 29.6511L27.1476 32.0458L25.1918 28.6547L29.5404 29.1325L29.5287 29.6511ZM29.5287 28.7305L25.4424 28.2915L29.5404 25.9279L29.5287 28.7305ZM29.5287 25.4676L24.8986 28.1614L22.568 24.1139L29.5462 22.4767L29.5287 25.4676ZM29.5287 22.0591L22.3427 23.7449L22.2786 23.6342L24.0848 20.5073L24.2013 20.3131L24.5121 20.8511L24.7335 20.115H29.5404L29.5287 22.0591ZM29.5287 19.7149H24.8597L26.932 12.8533L29.5404 14.372L29.5287 19.7149ZM29.5287 13.902L27.0447 12.4668L28.1517 8.79607L29.5287 10.1731V13.902ZM29.5287 9.61761L28.2818 8.3688L28.3887 8.01144L29.5287 8.31636V9.61761ZM29.5287 7.91045L28.5032 7.63466L29.5287 4.23392V7.91045ZM38.352 18.9963L35.2173 17.1862L35.497 16.1413L38.352 18.9963ZM35.3047 15.3878L34.1394 14.2225L36.4642 11.0704L35.3047 15.3878ZM33.5004 23.642L34.8774 22.8477L35.1882 24.013L32.7488 26.4523L33.5004 23.642ZM32.24 26.8019L30.125 25.5822L33.0168 23.9197L32.24 26.8019ZM32.743 13.3796L33.6247 14.2613L33.1508 14.9081L32.743 13.3796ZM33.0168 15.9258L32.9411 15.8811L32.9877 15.817L33.0168 15.9258ZM32.6867 12.7814L36.2156 10.7441L33.8656 13.9467L32.6867 12.7814ZM32.8576 15.3295L32.5993 15.683L30.1288 14.2574L32.24 13.0261L32.8576 15.3295ZM32.708 16.1996L33.1606 16.4618L34.0365 19.7305H30.125L32.708 16.1996ZM34.456 21.323L34.7609 22.4631L33.6344 23.1137L34.0909 21.4085L34.456 21.323ZM34.2171 20.9754L34.2948 20.6821L34.3647 20.9404L34.2171 20.9754ZM35.1241 22.2572L34.8483 21.2298L38.3073 20.418L35.1241 22.2572ZM34.7473 20.8511L34.5531 20.1189H37.8548L34.7473 20.8511ZM34.2948 19.1653L33.6442 16.7357L34.7706 17.3863L34.2948 19.1653ZM33.5004 16.1996L33.2887 15.4053L33.9102 14.5546L35.1882 15.8325L34.8774 16.9978L33.5004 16.1996ZM36.4137 10.1789L32.4925 12.4299L31.535 8.85628L36.4137 10.1789ZM29.9346 4.40095L30.9795 8.30082L29.9346 8.02115V4.40095ZM29.9346 8.42706L31.0999 8.73975L31.9933 12.0725L29.9346 10.0158V8.42706ZM29.9346 10.5634L32.0458 12.6862L29.9307 13.9079L29.9346 10.5634ZM29.9346 14.5798L32.3662 15.986L29.9346 19.3168V14.5798ZM29.9346 20.1053H34.0384L33.7821 21.0628L29.9346 21.9659V20.1053ZM29.9346 22.3699L33.6675 21.494L33.1625 23.374L29.9346 25.2482V22.3699ZM29.9346 25.9202L32.0458 27.1476L30.3658 28.8276L29.9307 28.779L29.9346 25.9202ZM31.9894 27.773L31.667 28.9771L30.8707 28.8917L31.9894 27.773ZM29.9346 29.1849H30.0142L29.9346 29.2646V29.1849ZM29.9346 35.4445V31.8146L30.9795 31.535L29.9346 35.4445ZM31.0999 31.1057L29.9346 31.4184V29.8278L30.5173 29.2451L31.566 29.3597L31.0999 31.1057ZM31.5388 30.9892L31.9622 29.4044L35.866 29.8297L31.5388 30.9892ZM32.0652 29.0199L32.4963 27.4137L36.0253 29.451L32.0652 29.0199ZM36.6137 29.3267L32.6886 27.0602L35.3047 24.4441L36.6137 29.3267ZM35.5086 23.6944L35.229 22.6495L38.3636 20.8395L35.5086 23.6944ZM34.5511 19.7266L35.1241 17.5902L38.8239 19.7266H34.5511Z" fill="white"/>
<path d="M36.4349 53.6044C34.7019 52.7259 33.2489 51.3805 32.2399 49.72C31.4631 48.4682 30.9543 47.0689 30.7459 45.6105C30.5374 44.1521 30.6337 42.6663 31.0287 41.247C31.4237 39.8277 32.1087 38.5058 33.0406 37.3647C33.9725 36.2237 35.1309 35.2883 36.4427 34.6177C38.3225 33.6689 40.4046 33.1903 42.51 33.2233C44.7358 33.2233 46.6779 33.6881 48.3365 34.6177C49.9587 35.5042 51.2378 36.9078 51.9703 38.605L47.2159 41.1745C46.1166 39.2323 44.5325 38.2613 42.4634 38.2613C40.867 38.2613 39.5443 38.785 38.4956 39.8325C37.4468 40.8799 36.9231 42.3042 36.9244 44.1052C36.9244 45.9179 37.4481 47.3422 38.4956 48.378C39.543 49.4138 40.8657 49.9376 42.4634 49.9492C44.5597 49.9492 46.1438 48.9781 47.2159 47.036L51.9703 49.6288C51.2164 51.2973 49.9412 52.676 48.3365 53.5578C46.6727 54.5004 44.7306 54.9717 42.51 54.9717C40.4042 55.0143 38.3195 54.5451 36.4349 53.6044Z" fill="white"/>
<path d="M55.4256 29.6164C55.091 29.3052 54.8242 28.9284 54.6418 28.5096C54.4594 28.0907 54.3652 27.6388 54.3652 27.1819C54.3652 26.725 54.4594 26.2731 54.6418 25.8542C54.8242 25.4353 55.091 25.0586 55.4256 24.7474C56.1325 24.0922 57.0492 23.7646 58.1757 23.7646C59.3021 23.7646 60.2188 24.0786 60.9258 24.7066C61.2658 24.9968 61.5373 25.3588 61.7207 25.7665C61.904 26.1742 61.9947 26.6174 61.9862 27.0644C61.9985 27.5364 61.9103 28.0055 61.7275 28.4408C61.5446 28.8761 61.2714 29.2676 60.9258 29.5892C60.2175 30.2573 59.3008 30.5914 58.1757 30.5914C57.0505 30.5914 56.1338 30.2664 55.4256 29.6164ZM55.1109 33.5454H61.2385V54.6781H55.1109V33.5454Z" fill="white"/>
<path d="M80.1726 53.657C79.5042 54.1312 78.7504 54.4715 77.9527 54.6592C77.0469 54.8847 76.1166 54.9969 75.1831 54.9932C72.67 54.9932 70.7278 54.3517 69.3566 53.0686C67.9855 51.7854 67.2979 49.8996 67.2941 47.411V38.7315H64.0273V34.0178H67.2882V28.8711H73.4138V34.0178H78.6771V38.7315H73.4138V47.3333C73.4138 48.2228 73.643 48.9104 74.1014 49.3959C74.5597 49.8815 75.2071 50.1236 76.0435 50.1223C76.9324 50.1504 77.8046 49.8765 78.5178 49.3454L80.1726 53.657Z" fill="white"/>
<path d="M83.5496 29.6164C83.2151 29.3052 82.9483 28.9284 82.7658 28.5096C82.5834 28.0907 82.4893 27.6388 82.4893 27.1819C82.4893 26.725 82.5834 26.2731 82.7658 25.8542C82.9483 25.4353 83.2151 25.0586 83.5496 24.7474C84.2565 24.0922 85.1732 23.7646 86.2997 23.7646C87.4261 23.7646 88.3422 24.0786 89.0479 24.7066C89.3893 24.996 89.6623 25.3577 89.847 25.7654C90.0317 26.1732 90.1236 26.6168 90.116 27.0644C90.1283 27.5364 90.0401 28.0055 89.8573 28.4408C89.6745 28.8761 89.4012 29.2676 89.0556 29.5892C88.3487 30.2573 87.4326 30.5914 86.3075 30.5914C85.1823 30.5914 84.263 30.2664 83.5496 29.6164ZM83.2349 33.5454H89.3625V54.6781H83.2349V33.5454Z" fill="white"/>
<path d="M115.249 45.8351H99.2625C99.5153 47.096 100.247 48.2098 101.304 48.9425C102.377 49.7026 103.713 50.0826 105.31 50.0826C106.308 50.0995 107.3 49.933 108.237 49.5912C109.126 49.2382 109.934 48.7098 110.615 48.0375L113.873 51.5722C111.883 53.8497 108.977 54.9891 105.153 54.9904C102.771 54.9904 100.663 54.5256 98.8294 53.596C97.0723 52.7368 95.5988 51.3914 94.5839 49.7194C93.5747 48.0219 93.0575 46.0772 93.0903 44.1026C93.0632 42.1375 93.5729 40.2022 94.5644 38.5053C95.5285 36.8619 96.9287 35.5174 98.61 34.621C100.366 33.7146 102.312 33.2369 104.289 33.2267C106.265 33.2166 108.216 33.6744 109.981 34.5627C111.638 35.4343 113.008 36.7638 113.93 38.3927C114.887 40.0578 115.365 41.9902 115.365 44.19C115.365 44.2677 115.326 44.8174 115.249 45.8351ZM100.911 39.0375C99.9701 39.8247 99.394 40.8987 99.1829 42.2595H109.593C109.432 41.0151 108.817 39.8741 107.864 39.0569C106.896 38.2501 105.667 37.8247 104.407 37.8605C103.018 37.8683 101.853 38.2606 100.911 39.0375Z" fill="white"/>
<path d="M121.022 54.3438C119.346 53.91 118.01 53.3669 117.016 52.7143L119.055 48.3133C120.116 48.9689 121.267 49.4655 122.471 49.7875C123.748 50.158 125.07 50.3495 126.4 50.3565C128.99 50.3565 130.285 49.7149 130.285 48.4318C130.285 47.8297 129.931 47.3979 129.224 47.1364C128.517 46.8749 127.43 46.6521 125.963 46.4683C124.52 46.2664 123.092 45.9647 121.69 45.5652C120.573 45.23 119.563 44.6063 118.764 43.757C117.939 42.8921 117.526 41.6621 117.526 40.0669C117.51 38.7858 117.92 37.5357 118.692 36.5127C119.469 35.4769 120.594 34.6716 122.069 34.0967C123.544 33.5218 125.292 33.2337 127.313 33.2324C128.816 33.232 130.313 33.3968 131.78 33.7238C133.069 33.9806 134.309 34.4395 135.455 35.0833L133.411 39.4435C131.549 38.3942 129.444 37.8524 127.307 37.8723C125.998 37.8723 125.016 38.0555 124.361 38.4219C123.706 38.7883 123.379 39.2596 123.38 39.8358C123.38 40.4897 123.734 40.948 124.441 41.2108C125.147 41.4737 126.273 41.7203 127.818 41.9508C129.251 42.1739 130.67 42.4819 132.067 42.8733C133.165 43.2056 134.152 43.826 134.928 44.6698C135.737 45.5322 136.143 46.7363 136.146 48.2823C136.16 49.5475 135.745 50.7801 134.967 51.7782C134.181 52.7998 133.035 53.5922 131.529 54.1554C130.024 54.7186 128.236 55.0002 126.167 55.0002C124.431 54.9994 122.703 54.7788 121.022 54.3438Z" fill="white"/>
<path d="M155.589 35.567C157.342 37.1207 158.219 39.4714 158.22 42.619V54.6779H152.485V52.0501C151.332 54.013 149.184 54.9951 146.043 54.9964C144.419 54.9964 143.012 54.7213 141.821 54.171C140.711 53.6899 139.762 52.8989 139.09 51.8928C138.458 50.909 138.13 49.7604 138.148 48.5911C138.148 46.627 138.888 45.0816 140.368 43.9552C141.848 42.8287 144.131 42.2655 147.216 42.2655H152.087C152.087 40.9293 151.681 39.9012 150.869 39.1813C150.058 38.4614 148.84 38.1015 147.216 38.1015C146.089 38.1016 144.968 38.2806 143.897 38.6317C142.896 38.9403 141.958 39.4258 141.127 40.065L138.927 35.7923C140.189 34.9294 141.592 34.2914 143.072 33.9064C144.69 33.4603 146.361 33.2355 148.04 33.2383C151.318 33.2331 153.834 34.0093 155.589 35.567ZM150.364 50.1332C151.175 49.6483 151.788 48.8912 152.093 47.9968V45.8352H147.89C145.374 45.8352 144.117 46.66 144.118 48.3095C144.106 48.6726 144.184 49.033 144.345 49.3586C144.506 49.6843 144.745 49.9651 145.041 50.1759C145.657 50.6343 146.502 50.8635 147.575 50.8635C148.554 50.8834 149.519 50.6334 150.364 50.141V50.1332Z" fill="white"/>
<path d="M181.218 34.5866C182.814 35.4756 184.128 36.7962 185.009 38.3971C185.925 40.0324 186.384 41.9371 186.384 44.111C186.384 46.2849 185.925 48.1902 185.009 49.8268C184.128 51.4277 182.814 52.7483 181.218 53.6373C179.579 54.5496 177.731 55.0182 175.855 54.9968C172.95 54.9968 170.737 54.0801 169.217 52.2467V54.6822H163.365V25.5322H169.493V35.7849C171.036 34.081 173.157 33.2297 175.855 33.231C177.73 33.2084 179.579 33.6757 181.218 34.5866ZM178.664 48.376C179.672 47.3156 180.177 45.8946 180.177 44.1129C180.177 42.3313 179.672 40.911 178.664 39.8518C177.656 38.7914 176.367 38.2612 174.795 38.2612C173.223 38.2612 171.933 38.7914 170.926 39.8518C169.917 40.9122 169.413 42.3326 169.413 44.1129C169.413 45.8933 169.917 47.3143 170.926 48.376C171.933 49.4364 173.223 49.9666 174.795 49.9666C176.367 49.9666 177.656 49.4358 178.664 48.3741V48.376Z" fill="white"/>
<path d="M194.217 53.6035C192.482 52.7253 191.027 51.3799 190.016 49.7191C189.025 48.0131 188.503 46.0753 188.503 44.1024C188.503 42.1295 189.025 40.1917 190.016 38.4856C191.031 36.8337 192.485 35.4968 194.217 34.6246C196.097 33.6754 198.18 33.1969 200.286 33.2301C202.512 33.2301 204.454 33.695 206.112 34.6246C207.738 35.5091 209.02 36.913 209.754 38.6119L205.002 41.1736C203.902 39.2314 202.318 38.2603 200.249 38.2603C198.651 38.2603 197.329 38.7841 196.281 39.8316C195.234 40.879 194.71 42.3033 194.71 44.1043C194.71 45.917 195.234 47.3413 196.281 48.3771C197.329 49.4129 198.651 49.9367 200.249 49.9483C202.343 49.9483 203.927 48.9772 205.002 47.0351L209.754 49.6492C209.001 51.3181 207.725 52.6971 206.12 53.5782C204.458 54.5208 202.516 54.9921 200.294 54.9921C198.185 55.0284 196.1 54.5519 194.217 53.6035Z" fill="white"/>
</svg>
