<svg width="150" height="33" viewBox="0 0 150 33" fill="none" xmlns="http://www.w3.org/2000/svg">
<path d="M69.1157 22.726C64.2727 22.726 61.0156 19.374 61.0156 14.386C61.0156 9.39805 64.2816 6.04602 69.1426 6.04602C70.202 6.00634 71.2578 6.19167 72.2403 6.58984C73.2228 6.98802 74.1098 7.59 74.8427 8.35602V1.50702C74.8432 1.1075 75.0021 0.724519 75.2846 0.442017C75.5671 0.159514 75.9501 0.000529165 76.3496 0H77.4186V22.482H74.8427V20.305C74.103 21.0769 73.2136 21.6899 72.2288 22.1061C71.2441 22.5224 70.1848 22.7333 69.1157 22.726ZM69.2076 8.59003C65.0696 8.59003 63.5956 11.584 63.5956 14.39C63.5956 17.89 65.7956 20.155 69.2076 20.155C69.9669 20.1778 70.7226 20.0419 71.4263 19.756C72.1301 19.47 72.7664 19.0403 73.2946 18.4944C73.8228 17.9485 74.2313 17.2984 74.4939 16.5856C74.7565 15.8729 74.8674 15.1132 74.8196 14.355C74.8562 13.6013 74.7372 12.848 74.4701 12.1422C74.203 11.4364 73.7935 10.7931 73.2671 10.2523C72.7407 9.71156 72.1087 9.28494 71.4103 8.99896C70.7119 8.71299 69.9621 8.57377 69.2076 8.59003Z" fill="#939596"/>
<path d="M87.2781 32.3129C82.6731 32.3129 79.5781 29.673 79.5781 25.743V25.1879H81.6291C81.7763 25.1879 81.9175 25.2464 82.0215 25.3505C82.1256 25.4546 82.1841 25.5958 82.1841 25.743C82.1841 28.691 84.9282 29.7369 87.2772 29.7369C88.4862 29.7369 92.4311 29.449 92.4311 25.743C92.4311 22.818 89.6552 21.78 87.2772 21.78C86.2501 21.801 85.2296 21.6107 84.2792 21.2207C83.3288 20.8308 82.4687 20.2496 81.7524 19.5132C81.0361 18.7768 80.4788 17.901 80.1153 16.9402C79.7518 15.9794 79.5897 14.9541 79.6391 13.928C79.6391 9.19498 82.7092 6.01495 87.2772 6.01495C88.7501 6.03268 90.1909 6.44724 91.4481 7.21497L92.9601 5.45093L93.6501 6.05096C93.9469 6.31366 94.1291 6.68224 94.1573 7.07764C94.1855 7.47304 94.0576 7.86375 93.8011 8.16595L93.2601 8.79694C94.4224 10.2479 95.0207 12.0704 94.9442 13.928C94.9379 15.1783 94.629 16.4084 94.0439 17.5134C93.4588 18.6183 92.6147 19.5651 91.584 20.2729C92.6296 20.7464 93.5121 21.5181 94.1207 22.4913C94.7293 23.4644 95.037 24.5956 95.0051 25.743C95.0081 29.795 92.0461 32.3129 87.2781 32.3129ZM87.2781 8.62097C83.5681 8.62097 82.2461 11.362 82.2461 13.928C82.2104 14.6082 82.3145 15.2886 82.5519 15.927C82.7894 16.5655 83.1552 17.1484 83.6267 17.64C84.0982 18.1316 84.6655 18.5213 85.2935 18.7852C85.9215 19.049 86.597 19.1813 87.2781 19.174C88.6433 19.1356 89.9395 18.5659 90.8908 17.586C91.8421 16.6061 92.3733 15.2937 92.3712 13.928C92.3722 10.704 90.3721 8.62097 87.2781 8.62097Z" fill="#F05728"/>
<path d="M97.2246 22.482V1.50702C97.2249 1.10742 97.3837 0.724271 97.6663 0.441711C97.9488 0.159151 98.3321 0.000264899 98.7317 0H99.8317V22.482H97.2246Z" fill="#F05728"/>
<path d="M110.27 22.7262C109.176 22.7426 108.09 22.5372 107.078 22.1223C106.065 21.7075 105.147 21.0918 104.379 20.3123C103.611 19.5329 103.009 18.6059 102.609 17.5874C102.209 16.5689 102.02 15.4799 102.052 14.3862C102.024 13.2963 102.216 12.212 102.618 11.1986C103.02 10.1852 103.624 9.26372 104.392 8.48995C105.16 7.71619 106.077 7.10609 107.087 6.69656C108.097 6.28703 109.18 6.08655 110.27 6.1072C111.315 6.08487 112.352 6.27854 113.318 6.67605C114.283 7.07356 115.157 7.66633 115.882 8.4172V6.29019H118.488V22.4822H117.388C116.989 22.4817 116.606 22.3227 116.323 22.0402C116.041 21.7577 115.882 21.3747 115.881 20.9752V20.3502C115.161 21.1125 114.291 21.7173 113.325 22.1262C112.359 22.5352 111.319 22.7395 110.27 22.7262ZM110.27 8.65121C109.518 8.63344 108.77 8.77057 108.073 9.05404C107.376 9.33751 106.745 9.76128 106.219 10.299C105.692 10.8368 105.282 11.477 105.014 12.18C104.745 12.8829 104.624 13.6335 104.658 14.3852C104.622 15.139 104.741 15.8922 105.008 16.598C105.275 17.3039 105.685 17.9472 106.211 18.4879C106.737 19.0287 107.369 19.4553 108.068 19.7413C108.766 20.0273 109.516 20.1665 110.27 20.1502C111.034 20.1836 111.796 20.0577 112.508 19.7805C113.221 19.5033 113.867 19.0809 114.407 18.5401C114.947 17.9994 115.369 17.3521 115.645 16.6396C115.922 15.927 116.047 15.1647 116.012 14.4012C116.047 13.6376 115.922 12.8752 115.646 12.1626C115.369 11.4499 114.948 10.8025 114.408 10.2616C113.868 9.72076 113.221 9.29828 112.509 9.02102C111.796 8.74376 111.034 8.61781 110.27 8.65121Z" fill="#F05728"/>
<path d="M127.702 22.726C124.618 22.726 121.978 21.502 120.642 19.451L120.381 19.051L121.837 17.756C121.896 17.704 121.965 17.6651 122.04 17.6418C122.114 17.6185 122.193 17.6114 122.271 17.6208C122.349 17.6303 122.424 17.6561 122.491 17.6967C122.558 17.7372 122.616 17.7915 122.661 17.856C123.259 18.6207 124.031 19.231 124.913 19.6357C125.795 20.0404 126.761 20.2277 127.731 20.182C128.951 20.182 131.797 19.954 131.878 17.846C131.919 16.4 130.478 15.913 127.429 15.423C124.629 14.956 121.136 14.374 121.1 10.823C121.082 10.2711 121.177 9.72135 121.38 9.20788C121.584 8.69441 121.89 8.22817 122.281 7.83801C123.733 6.5833 125.616 5.94157 127.533 6.04803H127.643C129.847 5.95885 131.998 6.73593 133.637 8.21301L134.037 8.59302L132.737 9.97503C132.638 10.0803 132.502 10.1431 132.358 10.15C132.214 10.1569 132.073 10.1074 131.965 10.012C131.374 9.49615 130.686 9.10246 129.942 8.85376C129.198 8.60505 128.412 8.50622 127.63 8.56299H127.511C126.278 8.47111 125.055 8.84666 124.086 9.61499C123.935 9.76559 123.816 9.94609 123.739 10.145C123.661 10.3438 123.626 10.5567 123.635 10.77C123.681 12.27 125.835 12.65 127.573 12.956L127.756 12.988L128.109 13.048C130.698 13.482 134.609 14.138 134.442 17.986C134.424 19.092 133.85 22.726 127.702 22.726Z" fill="#F05728"/>
<path d="M143.243 22.726C140.159 22.726 137.519 21.502 136.183 19.451L135.922 19.051L137.378 17.756C137.437 17.704 137.506 17.6651 137.581 17.6418C137.655 17.6185 137.735 17.6114 137.812 17.6208C137.89 17.6303 137.965 17.6561 138.032 17.6967C138.099 17.7372 138.157 17.7915 138.202 17.856C138.8 18.6207 139.572 19.231 140.454 19.6357C141.336 20.0404 142.302 20.2277 143.272 20.182C144.492 20.182 147.338 19.954 147.419 17.846C147.46 16.4 146.019 15.913 142.97 15.423C140.17 14.956 136.677 14.374 136.641 10.823C136.623 10.2711 136.718 9.72141 136.922 9.20794C137.125 8.69448 137.431 8.22821 137.822 7.83801C139.274 6.5833 141.157 5.94157 143.074 6.04803H143.184C145.388 5.95885 147.539 6.73593 149.178 8.21301L149.578 8.59302L148.278 9.97503C148.179 10.08 148.044 10.1426 147.9 10.1495C147.756 10.1564 147.615 10.1071 147.507 10.012C146.916 9.49615 146.228 9.10246 145.484 8.85376C144.74 8.60505 143.954 8.50622 143.172 8.56299H143.053C141.82 8.47111 140.597 8.84666 139.628 9.61499C139.476 9.76559 139.358 9.94609 139.281 10.145C139.203 10.3438 139.168 10.5567 139.177 10.77C139.223 12.27 141.377 12.65 143.115 12.956L143.298 12.988L143.651 13.048C146.24 13.482 150.151 14.138 149.984 17.986C149.965 19.092 149.388 22.726 143.243 22.726Z" fill="#F05728"/>
<path d="M34.4285 22.7292C29.9535 22.7292 27.0625 19.8992 27.0625 15.5182V6.26221H28.1625C28.5621 6.26247 28.9453 6.4213 29.2278 6.70386C29.5104 6.98642 29.6692 7.36963 29.6695 7.76923V15.4882C29.6288 16.1246 29.7204 16.7624 29.9387 17.3616C30.1569 17.9607 30.497 18.5081 30.9375 18.9692C31.8976 19.7983 33.1419 20.2227 34.4085 20.1532H34.5215C37.5775 20.1532 39.2605 18.4962 39.2605 15.4882V6.26221H41.8695V15.5182C41.8695 19.8392 39.0565 22.6522 34.6875 22.7272L34.4285 22.7292Z" fill="#939596"/>
<path d="M57.8778 22.4821C57.4783 22.4816 57.0953 22.3227 56.8128 22.0402C56.5303 21.7577 56.3713 21.3746 56.3708 20.9751V13.2561C56.3708 10.2481 54.6878 8.59113 51.6318 8.59113H51.5188C48.4628 8.59113 46.7798 10.2481 46.7798 13.2561V22.4821H44.1738V13.2261C44.1738 8.84614 47.0638 6.01514 51.5368 6.01514H51.5998C56.0858 6.01514 58.9768 8.8451 58.9768 13.2251V22.4811L57.8778 22.4821Z" fill="#939596"/>
<path d="M8.85696 6.03191C8.45546 5.95688 8.04731 5.92334 7.63895 5.93188C6.63472 5.85752 5.63019 6.0723 4.74414 6.55077C3.85809 7.02924 3.12757 7.75139 2.63895 8.63189L2.44395 6.23192H0.00195312V22.4889H2.60196V13.4389C2.5756 12.8006 2.68025 12.1637 2.90945 11.5674C3.13866 10.9711 3.48757 10.4281 3.93468 9.97179C4.38178 9.51551 4.9176 9.15564 5.50911 8.91436C6.10061 8.67308 6.73527 8.55552 7.37395 8.5689H7.38995C7.58005 8.57248 7.76897 8.53835 7.94577 8.46844C8.12258 8.39852 8.28377 8.29423 8.42001 8.16161C8.55626 8.029 8.66485 7.87065 8.73951 7.69579C8.81416 7.52093 8.8534 7.333 8.85495 7.14287L8.85696 6.03191Z" fill="#939596"/>
<path d="M20.1645 7.81487C20.4743 7.81487 20.7255 7.5637 20.7255 7.25387C20.7255 6.94404 20.4743 6.69287 20.1645 6.69287C19.8547 6.69287 19.6035 6.94404 19.6035 7.25387C19.6035 7.5637 19.8547 7.81487 20.1645 7.81487Z" fill="#F05728"/>
<path d="M15.427 7.18316C15.6176 7.18316 15.772 7.0287 15.772 6.83816C15.772 6.64763 15.6176 6.49316 15.427 6.49316C15.2365 6.49316 15.082 6.64763 15.082 6.83816C15.082 7.0287 15.2365 7.18316 15.427 7.18316Z" fill="#F05728"/>
<path d="M17.1327 6.96396C17.315 6.96396 17.4627 6.81621 17.4627 6.63396C17.4627 6.4517 17.315 6.30396 17.1327 6.30396C16.9505 6.30396 16.8027 6.4517 16.8027 6.63396C16.8027 6.81621 16.9505 6.96396 17.1327 6.96396Z" fill="#F05728"/>
<path d="M14.8788 6.785C15.0611 6.785 15.2088 6.63725 15.2088 6.455C15.2088 6.27275 15.0611 6.125 14.8788 6.125C14.6966 6.125 14.5488 6.27275 14.5488 6.455C14.5488 6.63725 14.6966 6.785 14.8788 6.785Z" fill="#F05728"/>
<path d="M13.9921 6.9642C14.1744 6.9642 14.3221 6.81645 14.3221 6.6342C14.3221 6.45195 14.1744 6.3042 13.9921 6.3042C13.8099 6.3042 13.6621 6.45195 13.6621 6.6342C13.6621 6.81645 13.8099 6.9642 13.9921 6.9642Z" fill="#F05728"/>
<path d="M21.2465 7.933C21.4409 7.933 21.5985 7.77541 21.5985 7.581C21.5985 7.3866 21.4409 7.229 21.2465 7.229C21.0521 7.229 20.8945 7.3866 20.8945 7.581C20.8945 7.77541 21.0521 7.933 21.2465 7.933Z" fill="#F05728"/>
<path d="M12.837 7.91512C13.022 7.91512 13.172 7.76513 13.172 7.58012C13.172 7.3951 13.022 7.24512 12.837 7.24512C12.6519 7.24512 12.502 7.3951 12.502 7.58012C12.502 7.76513 12.6519 7.91512 12.837 7.91512Z" fill="#F05728"/>
<path d="M13.8464 7.41989C13.9784 7.41989 14.0854 7.31289 14.0854 7.18089C14.0854 7.0489 13.9784 6.94189 13.8464 6.94189C13.7144 6.94189 13.6074 7.0489 13.6074 7.18089C13.6074 7.31289 13.7144 7.41989 13.8464 7.41989Z" fill="#F05728"/>
<path d="M13.3484 7.5571C13.4804 7.5571 13.5874 7.4501 13.5874 7.3181C13.5874 7.18611 13.4804 7.0791 13.3484 7.0791C13.2164 7.0791 13.1094 7.18611 13.1094 7.3181C13.1094 7.4501 13.2164 7.5571 13.3484 7.5571Z" fill="#F05728"/>
<path d="M17.8542 6.44577C17.9862 6.44577 18.0932 6.33877 18.0932 6.20677C18.0932 6.07478 17.9862 5.96777 17.8542 5.96777C17.7222 5.96777 17.6152 6.07478 17.6152 6.20677C17.6152 6.33877 17.7222 6.44577 17.8542 6.44577Z" fill="#F05728"/>
<path d="M11.8015 8.13199C11.9097 8.13199 11.9975 8.04424 11.9975 7.93599C11.9975 7.82774 11.9097 7.73999 11.8015 7.73999C11.6932 7.73999 11.6055 7.82774 11.6055 7.93599C11.6055 8.04424 11.6932 8.13199 11.8015 8.13199Z" fill="#F05728"/>
<path d="M14.7634 7.58788C14.9876 7.58788 15.1694 7.40611 15.1694 7.18188C15.1694 6.95765 14.9876 6.77588 14.7634 6.77588C14.5392 6.77588 14.3574 6.95765 14.3574 7.18188C14.3574 7.40611 14.5392 7.58788 14.7634 7.58788Z" fill="#F05728"/>
<path d="M15.9763 6.72997C16.2005 6.72997 16.3823 6.5482 16.3823 6.32397C16.3823 6.09974 16.2005 5.91797 15.9763 5.91797C15.7521 5.91797 15.5703 6.09974 15.5703 6.32397C15.5703 6.5482 15.7521 6.72997 15.9763 6.72997Z" fill="#F05728"/>
<path d="M16.3736 8.20498C16.8011 8.20498 17.1476 7.85845 17.1476 7.43098C17.1476 7.00351 16.8011 6.65698 16.3736 6.65698C15.9461 6.65698 15.5996 7.00351 15.5996 7.43098C15.5996 7.85845 15.9461 8.20498 16.3736 8.20498Z" fill="#F05728"/>
<path d="M18.3905 8.82589C19.0775 8.82589 19.6345 8.26893 19.6345 7.58189C19.6345 6.89485 19.0775 6.33789 18.3905 6.33789C17.7034 6.33789 17.1465 6.89485 17.1465 7.58189C17.1465 8.26893 17.7034 8.82589 18.3905 8.82589Z" fill="#F05728"/>
<path d="M19.2231 9.74212C19.5329 9.74212 19.7841 9.49095 19.7841 9.18112C19.7841 8.87129 19.5329 8.62012 19.2231 8.62012C18.9133 8.62012 18.6621 8.87129 18.6621 9.18112C18.6621 9.49095 18.9133 9.74212 19.2231 9.74212Z" fill="#F05728"/>
<path d="M20.0063 8.93792C20.3161 8.93792 20.5673 8.68675 20.5673 8.37692C20.5673 8.06709 20.3161 7.81592 20.0063 7.81592C19.6965 7.81592 19.4453 8.06709 19.4453 8.37692C19.4453 8.68675 19.6965 8.93792 20.0063 8.93792Z" fill="#F05728"/>
<path d="M20.4277 10.2811C20.817 10.2811 21.1327 9.96545 21.1327 9.57609C21.1327 9.18673 20.817 8.87109 20.4277 8.87109C20.0383 8.87109 19.7227 9.18673 19.7227 9.57609C19.7227 9.96545 20.0383 10.2811 20.4277 10.2811Z" fill="#F05728"/>
<path d="M21.7655 9.88705C22.1549 9.88705 22.4705 9.57141 22.4705 9.18205C22.4705 8.79269 22.1549 8.47705 21.7655 8.47705C21.3762 8.47705 21.0605 8.79269 21.0605 9.18205C21.0605 9.57141 21.3762 9.88705 21.7655 9.88705Z" fill="#F05728"/>
<path d="M21.953 11.6229C22.3424 11.6229 22.658 11.3073 22.658 10.9179C22.658 10.5285 22.3424 10.2129 21.953 10.2129C21.5637 10.2129 21.248 10.5285 21.248 10.9179C21.248 11.3073 21.5637 11.6229 21.953 11.6229Z" fill="#F05728"/>
<path d="M21.3144 10.4378C21.4966 10.4378 21.6444 10.2901 21.6444 10.1078C21.6444 9.92558 21.4966 9.77783 21.3144 9.77783C21.1321 9.77783 20.9844 9.92558 20.9844 10.1078C20.9844 10.2901 21.1321 10.4378 21.3144 10.4378Z" fill="#F05728"/>
<path d="M22.7323 9.13705C22.9146 9.13705 23.0623 8.9893 23.0623 8.80705C23.0623 8.6248 22.9146 8.47705 22.7323 8.47705C22.5501 8.47705 22.4023 8.6248 22.4023 8.80705C22.4023 8.9893 22.5501 9.13705 22.7323 9.13705Z" fill="#F05728"/>
<path d="M21.6191 8.47689C21.8013 8.47689 21.9491 8.32915 21.9491 8.14689C21.9491 7.96464 21.8013 7.81689 21.6191 7.81689C21.4368 7.81689 21.2891 7.96464 21.2891 8.14689C21.2891 8.32915 21.4368 8.47689 21.6191 8.47689Z" fill="#F05728"/>
<path d="M20.8652 8.47689C21.0474 8.47689 21.1952 8.32915 21.1952 8.14689C21.1952 7.96464 21.0474 7.81689 20.8652 7.81689C20.6829 7.81689 20.5352 7.96464 20.5352 8.14689C20.5352 8.32915 20.6829 8.47689 20.8652 8.47689Z" fill="#F05728"/>
<path d="M11.5814 12.8557C11.8206 12.8557 12.0144 12.6619 12.0144 12.4227C12.0144 12.1836 11.8206 11.9897 11.5814 11.9897C11.3423 11.9897 11.1484 12.1836 11.1484 12.4227C11.1484 12.6619 11.3423 12.8557 11.5814 12.8557Z" fill="#F05728"/>
<path d="M22.9868 11.4618C23.1812 11.4618 23.3388 11.3042 23.3388 11.1098C23.3388 10.9154 23.1812 10.7578 22.9868 10.7578C22.7924 10.7578 22.6348 10.9154 22.6348 11.1098C22.6348 11.3042 22.7924 11.4618 22.9868 11.4618Z" fill="#F05728"/>
<path d="M23.4418 9.97207C23.6362 9.97207 23.7938 9.81447 23.7938 9.62007C23.7938 9.42566 23.6362 9.26807 23.4418 9.26807C23.2474 9.26807 23.0898 9.42566 23.0898 9.62007C23.0898 9.81447 23.2474 9.97207 23.4418 9.97207Z" fill="#F05728"/>
<path d="M22.5656 10.397C22.7992 10.397 22.9886 10.2076 22.9886 9.97403C22.9886 9.74041 22.7992 9.55103 22.5656 9.55103C22.332 9.55103 22.1426 9.74041 22.1426 9.97403C22.1426 10.2076 22.332 10.397 22.5656 10.397Z" fill="#F05728"/>
<path d="M23.296 10.8191C23.5297 10.8191 23.719 10.6298 23.719 10.3961C23.719 10.1625 23.5297 9.97314 23.296 9.97314C23.0624 9.97314 22.873 10.1625 22.873 10.3961C22.873 10.6298 23.0624 10.8191 23.296 10.8191Z" fill="#F05728"/>
<path d="M23.9914 12.0838C24.225 12.0838 24.4144 11.8944 24.4144 11.6608C24.4144 11.4272 24.225 11.2378 23.9914 11.2378C23.7577 11.2378 23.5684 11.4272 23.5684 11.6608C23.5684 11.8944 23.7577 12.0838 23.9914 12.0838Z" fill="#F05728"/>
<path d="M21.763 12.2092C21.932 12.2092 22.069 12.0722 22.069 11.9032C22.069 11.7342 21.932 11.5972 21.763 11.5972C21.594 11.5972 21.457 11.7342 21.457 11.9032C21.457 12.0722 21.594 12.2092 21.763 12.2092Z" fill="#F05728"/>
<path d="M23.0461 19.762C23.257 19.762 23.4281 19.591 23.4281 19.38C23.4281 19.1691 23.257 18.998 23.0461 18.998C22.8351 18.998 22.6641 19.1691 22.6641 19.38C22.6641 19.591 22.8351 19.762 23.0461 19.762Z" fill="#F05728"/>
<path d="M22.6702 13.1031C23.0684 13.1031 23.3912 12.7803 23.3912 12.3821C23.3912 11.9839 23.0684 11.6611 22.6702 11.6611C22.272 11.6611 21.9492 11.9839 21.9492 12.3821C21.9492 12.7803 22.272 13.1031 22.6702 13.1031Z" fill="#F05728"/>
<path d="M23.4435 14.439C23.7456 14.439 23.9905 14.1941 23.9905 13.892C23.9905 13.5899 23.7456 13.345 23.4435 13.345C23.1414 13.345 22.8965 13.5899 22.8965 13.892C22.8965 14.1941 23.1414 14.439 23.4435 14.439Z" fill="#F05728"/>
<path d="M22.4577 13.8001C22.6565 13.8001 22.8177 13.6389 22.8177 13.4401C22.8177 13.2413 22.6565 13.0801 22.4577 13.0801C22.2588 13.0801 22.0977 13.2413 22.0977 13.4401C22.0977 13.6389 22.2588 13.8001 22.4577 13.8001Z" fill="#F05728"/>
<path d="M24.7043 14.1698C24.939 14.1698 25.1293 13.9795 25.1293 13.7448C25.1293 13.5101 24.939 13.3198 24.7043 13.3198C24.4696 13.3198 24.2793 13.5101 24.2793 13.7448C24.2793 13.9795 24.4696 14.1698 24.7043 14.1698Z" fill="#F05728"/>
<path d="M22.6574 14.8939C22.8921 14.8939 23.0824 14.7037 23.0824 14.4689C23.0824 14.2342 22.8921 14.0439 22.6574 14.0439C22.4227 14.0439 22.2324 14.2342 22.2324 14.4689C22.2324 14.7037 22.4227 14.8939 22.6574 14.8939Z" fill="#F05728"/>
<path d="M22.5913 16.269C22.9707 16.269 23.2783 15.9614 23.2783 15.582C23.2783 15.2026 22.9707 14.895 22.5913 14.895C22.2119 14.895 21.9043 15.2026 21.9043 15.582C21.9043 15.9614 22.2119 16.269 22.5913 16.269Z" fill="#F05728"/>
<path d="M24.2104 15.5439C24.5899 15.5439 24.8974 15.2363 24.8974 14.8569C24.8974 14.4775 24.5899 14.1699 24.2104 14.1699C23.831 14.1699 23.5234 14.4775 23.5234 14.8569C23.5234 15.2363 23.831 15.5439 24.2104 15.5439Z" fill="#F05728"/>
<path d="M24.5681 16.1211C24.7459 16.1211 24.8901 15.9769 24.8901 15.7991C24.8901 15.6212 24.7459 15.4771 24.5681 15.4771C24.3903 15.4771 24.2461 15.6212 24.2461 15.7991C24.2461 15.9769 24.3903 16.1211 24.5681 16.1211Z" fill="#F05728"/>
<path d="M23.6361 17.1502C24.0133 17.1502 24.3191 16.8444 24.3191 16.4672C24.3191 16.09 24.0133 15.7842 23.6361 15.7842C23.2589 15.7842 22.9531 16.09 22.9531 16.4672C22.9531 16.8444 23.2589 17.1502 23.6361 17.1502Z" fill="#F05728"/>
<path d="M22.2318 18.188C22.609 18.188 22.9148 17.8822 22.9148 17.505C22.9148 17.1278 22.609 16.822 22.2318 16.822C21.8546 16.822 21.5488 17.1278 21.5488 17.505C21.5488 17.8822 21.8546 18.188 22.2318 18.188Z" fill="#F05728"/>
<path d="M22.9405 18.5631C23.1255 18.5631 23.2755 18.4131 23.2755 18.2281C23.2755 18.0431 23.1255 17.8931 22.9405 17.8931C22.7555 17.8931 22.6055 18.0431 22.6055 18.2281C22.6055 18.4131 22.7555 18.5631 22.9405 18.5631Z" fill="#F05728"/>
<path d="M24.1748 17.6671C24.3599 17.6671 24.5098 17.5171 24.5098 17.3321C24.5098 17.1471 24.3599 16.9971 24.1748 16.9971C23.9898 16.9971 23.8398 17.1471 23.8398 17.3321C23.8398 17.5171 23.9898 17.6671 24.1748 17.6671Z" fill="#F05728"/>
<path d="M23.753 18.1881C23.938 18.1881 24.088 18.0381 24.088 17.8531C24.088 17.6681 23.938 17.5181 23.753 17.5181C23.568 17.5181 23.418 17.6681 23.418 17.8531C23.418 18.0381 23.568 18.1881 23.753 18.1881Z" fill="#F05728"/>
<path d="M22.6065 19.1319C22.7915 19.1319 22.9415 18.9819 22.9415 18.7969C22.9415 18.6119 22.7915 18.4619 22.6065 18.4619C22.4215 18.4619 22.2715 18.6119 22.2715 18.7969C22.2715 18.9819 22.4215 19.1319 22.6065 19.1319Z" fill="#F05728"/>
<path d="M19.1748 19.8219C19.3599 19.8219 19.5098 19.6719 19.5098 19.4869C19.5098 19.3018 19.3599 19.1519 19.1748 19.1519C18.9898 19.1519 18.8398 19.3018 18.8398 19.4869C18.8398 19.6719 18.9898 19.8219 19.1748 19.8219Z" fill="#F05728"/>
<path d="M22.2549 20.515C22.4399 20.515 22.5899 20.365 22.5899 20.18C22.5899 19.995 22.4399 19.845 22.2549 19.845C22.0699 19.845 21.9199 19.995 21.9199 20.18C21.9199 20.365 22.0699 20.515 22.2549 20.515Z" fill="#F05728"/>
<path d="M22.8712 20.3308C23.0352 20.3308 23.1682 20.1978 23.1682 20.0338C23.1682 19.8698 23.0352 19.7368 22.8712 19.7368C22.7072 19.7368 22.5742 19.8698 22.5742 20.0338C22.5742 20.1978 22.7072 20.3308 22.8712 20.3308Z" fill="#F05728"/>
<path d="M22.2662 19.8449C22.4865 19.8449 22.6652 19.6662 22.6652 19.4459C22.6652 19.2255 22.4865 19.0469 22.2662 19.0469C22.0458 19.0469 21.8672 19.2255 21.8672 19.4459C21.8672 19.6662 22.0458 19.8449 22.2662 19.8449Z" fill="#F05728"/>
<path d="M22.0854 16.8338C22.2792 16.8338 22.4364 16.6767 22.4364 16.4828C22.4364 16.289 22.2792 16.1318 22.0854 16.1318C21.8915 16.1318 21.7344 16.289 21.7344 16.4828C21.7344 16.6767 21.8915 16.8338 22.0854 16.8338Z" fill="#F05728"/>
<path d="M23.1785 19.0119C23.3104 19.0119 23.4175 18.9049 23.4175 18.7729C23.4175 18.6409 23.3104 18.5339 23.1785 18.5339C23.0465 18.5339 22.9395 18.6409 22.9395 18.7729C22.9395 18.9049 23.0465 19.0119 23.1785 19.0119Z" fill="#F05728"/>
<path d="M21.6861 21.3819C21.8363 21.3819 21.9581 21.2601 21.9581 21.1099C21.9581 20.9597 21.8363 20.8379 21.6861 20.8379C21.5358 20.8379 21.4141 20.9597 21.4141 21.1099C21.4141 21.2601 21.5358 21.3819 21.6861 21.3819Z" fill="#F05728"/>
<path d="M24.4773 17.084C24.6093 17.084 24.7163 16.977 24.7163 16.845C24.7163 16.713 24.6093 16.606 24.4773 16.606C24.3453 16.606 24.2383 16.713 24.2383 16.845C24.2383 16.977 24.3453 17.084 24.4773 17.084Z" fill="#F05728"/>
<path d="M23.4949 18.6069C23.6269 18.6069 23.7339 18.4999 23.7339 18.3679C23.7339 18.2359 23.6269 18.1289 23.4949 18.1289C23.3629 18.1289 23.2559 18.2359 23.2559 18.3679C23.2559 18.4999 23.3629 18.6069 23.4949 18.6069Z" fill="#F05728"/>
<path d="M21.4226 18.186C21.5546 18.186 21.6616 18.079 21.6616 17.947C21.6616 17.815 21.5546 17.708 21.4226 17.708C21.2906 17.708 21.1836 17.815 21.1836 17.947C21.1836 18.079 21.2906 18.186 21.4226 18.186Z" fill="#F05728"/>
<path d="M20.6023 18.7402C20.7343 18.7402 20.8413 18.6332 20.8413 18.5012C20.8413 18.3692 20.7343 18.2622 20.6023 18.2622C20.4703 18.2622 20.3633 18.3692 20.3633 18.5012C20.3633 18.6332 20.4703 18.7402 20.6023 18.7402Z" fill="#F05728"/>
<path d="M21.3475 17.473C21.4811 17.473 21.5895 17.3647 21.5895 17.231C21.5895 17.0974 21.4811 16.989 21.3475 16.989C21.2138 16.989 21.1055 17.0974 21.1055 17.231C21.1055 17.3647 21.2138 17.473 21.3475 17.473Z" fill="#F05728"/>
<path d="M21.0227 18.23C21.1205 18.23 21.1997 18.1507 21.1997 18.053C21.1997 17.9552 21.1205 17.876 21.0227 17.876C20.9249 17.876 20.8457 17.9552 20.8457 18.053C20.8457 18.1507 20.9249 18.23 21.0227 18.23Z" fill="#F05728"/>
<path d="M24.8645 16.374C24.9623 16.374 25.0415 16.2948 25.0415 16.197C25.0415 16.0993 24.9623 16.02 24.8645 16.02C24.7667 16.02 24.6875 16.0993 24.6875 16.197C24.6875 16.2948 24.7667 16.374 24.8645 16.374Z" fill="#F05728"/>
<path d="M19.6848 19.644C19.7826 19.644 19.8618 19.5648 19.8618 19.467C19.8618 19.3693 19.7826 19.29 19.6848 19.29C19.5871 19.29 19.5078 19.3693 19.5078 19.467C19.5078 19.5648 19.5871 19.644 19.6848 19.644Z" fill="#F05728"/>
<path d="M19.7043 19.998C19.8021 19.998 19.8813 19.9188 19.8813 19.821C19.8813 19.7233 19.8021 19.644 19.7043 19.644C19.6066 19.644 19.5273 19.7233 19.5273 19.821C19.5273 19.9188 19.6066 19.998 19.7043 19.998Z" fill="#F05728"/>
<path d="M21.3879 19.3649C21.7143 19.3649 21.9789 19.1003 21.9789 18.7739C21.9789 18.4475 21.7143 18.1829 21.3879 18.1829C21.0615 18.1829 20.7969 18.4475 20.7969 18.7739C20.7969 19.1003 21.0615 19.3649 21.3879 19.3649Z" fill="#F05728"/>
<path d="M24.0608 13.5179C24.459 13.5179 24.7818 13.1951 24.7818 12.7969C24.7818 12.3987 24.459 12.0759 24.0608 12.0759C23.6626 12.0759 23.3398 12.3987 23.3398 12.7969C23.3398 13.1951 23.6626 13.5179 24.0608 13.5179Z" fill="#F05728"/>
<path d="M12.5474 21.12C12.9749 21.12 13.3214 20.7735 13.3214 20.346C13.3214 19.9186 12.9749 19.572 12.5474 19.572C12.12 19.572 11.7734 19.9186 11.7734 20.346C11.7734 20.7735 12.12 21.12 12.5474 21.12Z" fill="#F05728"/>
<path d="M13.2978 21.808C13.4342 21.808 13.5448 21.6974 13.5448 21.561C13.5448 21.4246 13.4342 21.314 13.2978 21.314C13.1614 21.314 13.0508 21.4246 13.0508 21.561C13.0508 21.6974 13.1614 21.808 13.2978 21.808Z" fill="#F05728"/>
<path d="M12.245 21.5677C12.3815 21.5677 12.492 21.4571 12.492 21.3207C12.492 21.1843 12.3815 21.0737 12.245 21.0737C12.1086 21.0737 11.998 21.1843 11.998 21.3207C11.998 21.4571 12.1086 21.5677 12.245 21.5677Z" fill="#F05728"/>
<path d="M16.3255 22.7689C16.5398 22.7689 16.7135 22.5952 16.7135 22.3809C16.7135 22.1666 16.5398 21.9929 16.3255 21.9929C16.1112 21.9929 15.9375 22.1666 15.9375 22.3809C15.9375 22.5952 16.1112 22.7689 16.3255 22.7689Z" fill="#F05728"/>
<path d="M13.5294 22.0758C13.6233 22.0758 13.6994 21.9997 13.6994 21.9058C13.6994 21.812 13.6233 21.7358 13.5294 21.7358C13.4355 21.7358 13.3594 21.812 13.3594 21.9058C13.3594 21.9997 13.4355 22.0758 13.5294 22.0758Z" fill="#F05728"/>
<path d="M14.0629 21.911C14.2109 21.911 14.3309 21.791 14.3309 21.643C14.3309 21.495 14.2109 21.375 14.0629 21.375C13.9149 21.375 13.7949 21.495 13.7949 21.643C13.7949 21.791 13.9149 21.911 14.0629 21.911Z" fill="#F05728"/>
<path d="M14.5395 21.6561C14.6875 21.6561 14.8075 21.5361 14.8075 21.3881C14.8075 21.2401 14.6875 21.1201 14.5395 21.1201C14.3915 21.1201 14.2715 21.2401 14.2715 21.3881C14.2715 21.5361 14.3915 21.6561 14.5395 21.6561Z" fill="#F05728"/>
<path d="M13.7333 21.4471C14.0304 21.4471 14.2713 21.2062 14.2713 20.9091C14.2713 20.612 14.0304 20.3711 13.7333 20.3711C13.4362 20.3711 13.1953 20.612 13.1953 20.9091C13.1953 21.2062 13.4362 21.4471 13.7333 21.4471Z" fill="#F05728"/>
<path d="M18.2411 20.908C18.5383 20.908 18.7791 20.6672 18.7791 20.37C18.7791 20.0729 18.5383 19.832 18.2411 19.832C17.944 19.832 17.7031 20.0729 17.7031 20.37C17.7031 20.6672 17.944 20.908 18.2411 20.908Z" fill="#F05728"/>
<path d="M20.3642 19.7811C20.6613 19.7811 20.9022 19.5402 20.9022 19.2431C20.9022 18.9459 20.6613 18.7051 20.3642 18.7051C20.067 18.7051 19.8262 18.9459 19.8262 19.2431C19.8262 19.5402 20.067 19.7811 20.3642 19.7811Z" fill="#F05728"/>
<path d="M14.5105 21.06C14.6425 21.06 14.7495 20.953 14.7495 20.821C14.7495 20.689 14.6425 20.582 14.5105 20.582C14.3785 20.582 14.2715 20.689 14.2715 20.821C14.2715 20.953 14.3785 21.06 14.5105 21.06Z" fill="#F05728"/>
<path d="M14.3008 19.719C14.4615 19.719 14.5918 19.5887 14.5918 19.428C14.5918 19.2672 14.4615 19.137 14.3008 19.137C14.1401 19.137 14.0098 19.2672 14.0098 19.428C14.0098 19.5887 14.1401 19.719 14.3008 19.719Z" fill="#F05728"/>
<path d="M15.3073 20.1542C15.4846 20.1542 15.6283 20.0105 15.6283 19.8332C15.6283 19.6559 15.4846 19.5122 15.3073 19.5122C15.13 19.5122 14.9863 19.6559 14.9863 19.8332C14.9863 20.0105 15.13 20.1542 15.3073 20.1542Z" fill="#F05728"/>
<path d="M12.1748 17.7771C12.3587 17.7771 12.5078 17.628 12.5078 17.4441C12.5078 17.2602 12.3587 17.1111 12.1748 17.1111C11.9909 17.1111 11.8418 17.2602 11.8418 17.4441C11.8418 17.628 11.9909 17.7771 12.1748 17.7771Z" fill="#F05728"/>
<path d="M12.5715 18.2401C12.7372 18.2401 12.8715 18.1058 12.8715 17.9401C12.8715 17.7745 12.7372 17.6401 12.5715 17.6401C12.4058 17.6401 12.2715 17.7745 12.2715 17.9401C12.2715 18.1058 12.4058 18.2401 12.5715 18.2401Z" fill="#F05728"/>
<path d="M12.3816 18.6789C12.5136 18.6789 12.6206 18.5719 12.6206 18.4399C12.6206 18.3079 12.5136 18.2009 12.3816 18.2009C12.2496 18.2009 12.1426 18.3079 12.1426 18.4399C12.1426 18.5719 12.2496 18.6789 12.3816 18.6789Z" fill="#F05728"/>
<path d="M12.6508 19.4011C12.8667 19.4011 13.0418 19.2261 13.0418 19.0101C13.0418 18.7942 12.8667 18.6191 12.6508 18.6191C12.4348 18.6191 12.2598 18.7942 12.2598 19.0101C12.2598 19.2261 12.4348 19.4011 12.6508 19.4011Z" fill="#F05728"/>
<path d="M13.6613 20.2958C13.9187 20.2958 14.1273 20.0871 14.1273 19.8298C14.1273 19.5724 13.9187 19.3638 13.6613 19.3638C13.4039 19.3638 13.1953 19.5724 13.1953 19.8298C13.1953 20.0871 13.4039 20.2958 13.6613 20.2958Z" fill="#F05728"/>
<path d="M8.77069 15.129C9.02805 15.129 9.23669 14.9204 9.23669 14.663C9.23669 14.4057 9.02805 14.197 8.77069 14.197C8.51332 14.197 8.30469 14.4057 8.30469 14.663C8.30469 14.9204 8.51332 15.129 8.77069 15.129Z" fill="#F05728"/>
<path d="M11.0174 20.2649C11.7045 20.2649 12.2614 19.7079 12.2614 19.0209C12.2614 18.3338 11.7045 17.7769 11.0174 17.7769C10.3304 17.7769 9.77344 18.3338 9.77344 19.0209C9.77344 19.7079 10.3304 20.2649 11.0174 20.2649Z" fill="#F05728"/>
<path d="M8.75047 13.539C8.96862 13.539 9.14547 13.3622 9.14547 13.144C9.14547 12.9259 8.96862 12.749 8.75047 12.749C8.53232 12.749 8.35547 12.9259 8.35547 13.144C8.35547 13.3622 8.53232 13.539 8.75047 13.539Z" fill="#F05728"/>
<path d="M11.3032 17.8022C11.613 17.8022 11.8642 17.551 11.8642 17.2412C11.8642 16.9313 11.613 16.6802 11.3032 16.6802C10.9934 16.6802 10.7422 16.9313 10.7422 17.2412C10.7422 17.551 10.9934 17.8022 11.3032 17.8022Z" fill="#F05728"/>
<path d="M11.0863 14.0081C11.326 14.0081 11.5203 13.8138 11.5203 13.5741C11.5203 13.3344 11.326 13.1401 11.0863 13.1401C10.8467 13.1401 10.6523 13.3344 10.6523 13.5741C10.6523 13.8138 10.8467 14.0081 11.0863 14.0081Z" fill="#F05728"/>
<path d="M10.1938 17.9809C10.5036 17.9809 10.7548 17.7297 10.7548 17.4199C10.7548 17.1101 10.5036 16.8589 10.1938 16.8589C9.88398 16.8589 9.63281 17.1101 9.63281 17.4199C9.63281 17.7297 9.88398 17.9809 10.1938 17.9809Z" fill="#F05728"/>
<path d="M10.5722 16.912C10.9615 16.912 11.2772 16.5963 11.2772 16.207C11.2772 15.8176 10.9615 15.502 10.5722 15.502C10.1828 15.502 9.86719 15.8176 9.86719 16.207C9.86719 16.5963 10.1828 16.912 10.5722 16.912Z" fill="#F05728"/>
<path d="M9.26359 16.431C9.65295 16.431 9.96859 16.1154 9.96859 15.726C9.96859 15.3366 9.65295 15.021 9.26359 15.021C8.87423 15.021 8.55859 15.3366 8.55859 15.726C8.55859 16.1154 8.87423 16.431 9.26359 16.431Z" fill="#F05728"/>
<path d="M10.1464 14.9251C10.5358 14.9251 10.8514 14.6095 10.8514 14.2201C10.8514 13.8308 10.5358 13.5151 10.1464 13.5151C9.75705 13.5151 9.44141 13.8308 9.44141 14.2201C9.44141 14.6095 9.75705 14.9251 10.1464 14.9251Z" fill="#F05728"/>
<path d="M9.43012 13.7987C9.62453 13.7987 9.78212 13.6411 9.78212 13.4467C9.78212 13.2523 9.62453 13.0947 9.43012 13.0947C9.23572 13.0947 9.07812 13.2523 9.07812 13.4467C9.07812 13.6411 9.23572 13.7987 9.43012 13.7987Z" fill="#F05728"/>
<path d="M9.37934 13.0941C9.57375 13.0941 9.73134 12.9365 9.73134 12.7421C9.73134 12.5477 9.57375 12.3901 9.37934 12.3901C9.18494 12.3901 9.02734 12.5477 9.02734 12.7421C9.02734 12.9365 9.18494 13.0941 9.37934 13.0941Z" fill="#F05728"/>
<path d="M10.645 15.5009C10.8394 15.5009 10.997 15.3433 10.997 15.1489C10.997 14.9545 10.8394 14.7969 10.645 14.7969C10.4506 14.7969 10.293 14.9545 10.293 15.1489C10.293 15.3433 10.4506 15.5009 10.645 15.5009Z" fill="#F05728"/>
<path d="M14.2077 22.5289C14.3839 22.5289 14.5267 22.386 14.5267 22.2099C14.5267 22.0337 14.3839 21.8909 14.2077 21.8909C14.0315 21.8909 13.8887 22.0337 13.8887 22.2099C13.8887 22.386 14.0315 22.5289 14.2077 22.5289Z" fill="#F05728"/>
<path d="M8.96919 17.0922C9.16359 17.0922 9.32119 16.9346 9.32119 16.7402C9.32119 16.5458 9.16359 16.3882 8.96919 16.3882C8.77478 16.3882 8.61719 16.5458 8.61719 16.7402C8.61719 16.9346 8.77478 17.0922 8.96919 17.0922Z" fill="#F05728"/>
<path d="M11.3741 15.841C11.6066 15.841 11.7951 15.6525 11.7951 15.42C11.7951 15.1875 11.6066 14.999 11.3741 14.999C11.1416 14.999 10.9531 15.1875 10.9531 15.42C10.9531 15.6525 11.1416 15.841 11.3741 15.841Z" fill="#F05728"/>
<path d="M11.2279 15.008C11.4659 15.008 11.6589 14.815 11.6589 14.577C11.6589 14.339 11.4659 14.146 11.2279 14.146C10.9898 14.146 10.7969 14.339 10.7969 14.577C10.7969 14.815 10.9898 15.008 11.2279 15.008Z" fill="#F05728"/>
<path d="M9.07184 17.548C9.19997 17.548 9.30384 17.4441 9.30384 17.316C9.30384 17.1879 9.19997 17.084 9.07184 17.084C8.94371 17.084 8.83984 17.1879 8.83984 17.316C8.83984 17.4441 8.94371 17.548 9.07184 17.548Z" fill="#F05728"/>
<path d="M11.607 20.9381C11.7351 20.9381 11.839 20.8343 11.839 20.7061C11.839 20.578 11.7351 20.4741 11.607 20.4741C11.4789 20.4741 11.375 20.578 11.375 20.7061C11.375 20.8343 11.4789 20.9381 11.607 20.9381Z" fill="#F05728"/>
<path d="M12.7823 21.6858C12.9458 21.6858 13.0783 21.5532 13.0783 21.3898C13.0783 21.2263 12.9458 21.0938 12.7823 21.0938C12.6189 21.0938 12.4863 21.2263 12.4863 21.3898C12.4863 21.5532 12.6189 21.6858 12.7823 21.6858Z" fill="#F05728"/>
<path d="M10.4456 13.339C10.8438 13.339 11.1666 13.0162 11.1666 12.618C11.1666 12.2198 10.8438 11.897 10.4456 11.897C10.0474 11.897 9.72461 12.2198 9.72461 12.618C9.72461 13.0162 10.0474 13.339 10.4456 13.339Z" fill="#F05728"/>
<path d="M10.7228 11.49C11.0249 11.49 11.2698 11.2451 11.2698 10.943C11.2698 10.6409 11.0249 10.396 10.7228 10.396C10.4207 10.396 10.1758 10.6409 10.1758 10.943C10.1758 11.2451 10.4207 11.49 10.7228 11.49Z" fill="#F05728"/>
<path d="M9.73097 10.743C9.97287 10.743 10.169 10.5491 10.169 10.31C10.169 10.0708 9.97287 9.87695 9.73097 9.87695C9.48907 9.87695 9.29297 10.0708 9.29297 10.31C9.29297 10.5491 9.48907 10.743 9.73097 10.743Z" fill="#F05728"/>
<path d="M11.5845 11.99C11.7573 11.99 11.8975 11.8499 11.8975 11.677C11.8975 11.5041 11.7573 11.364 11.5845 11.364C11.4116 11.364 11.2715 11.5041 11.2715 11.677C11.2715 11.8499 11.4116 11.99 11.5845 11.99Z" fill="#F05728"/>
<path d="M11.6984 11.3729C11.9332 11.3729 12.1234 11.1827 12.1234 10.9479C12.1234 10.7132 11.9332 10.5229 11.6984 10.5229C11.4637 10.5229 11.2734 10.7132 11.2734 10.9479C11.2734 11.1827 11.4637 11.3729 11.6984 11.3729Z" fill="#F05728"/>
<path d="M12.4155 10.781C12.7949 10.781 13.1025 10.4734 13.1025 10.094C13.1025 9.71456 12.7949 9.40698 12.4155 9.40698C12.0361 9.40698 11.7285 9.71456 11.7285 10.094C11.7285 10.4734 12.0361 10.781 12.4155 10.781Z" fill="#F05728"/>
<path d="M10.6831 10.3969C11.0625 10.3969 11.3701 10.0894 11.3701 9.70995C11.3701 9.33053 11.0625 9.02295 10.6831 9.02295C10.3037 9.02295 9.99609 9.33053 9.99609 9.70995C9.99609 10.0894 10.3037 10.3969 10.6831 10.3969Z" fill="#F05728"/>
<path d="M10.9587 9.0649C11.1366 9.0649 11.2807 8.92073 11.2807 8.7429C11.2807 8.56506 11.1366 8.4209 10.9587 8.4209C10.7809 8.4209 10.6367 8.56506 10.6367 8.7429C10.6367 8.92073 10.7809 9.0649 10.9587 9.0649Z" fill="#F05728"/>
<path d="M12.1049 9.44486C12.4821 9.44486 12.7879 9.13907 12.7879 8.76186C12.7879 8.38465 12.4821 8.07886 12.1049 8.07886C11.7277 8.07886 11.4219 8.38465 11.4219 8.76186C11.4219 9.13907 11.7277 9.44486 12.1049 9.44486Z" fill="#F05728"/>
<path d="M13.851 9.44901C14.2282 9.44901 14.534 9.14322 14.534 8.76601C14.534 8.3888 14.2282 8.08301 13.851 8.08301C13.4738 8.08301 13.168 8.3888 13.168 8.76601C13.168 9.14322 13.4738 9.44901 13.851 9.44901Z" fill="#F05728"/>
<path d="M13.7139 8.09798C13.8989 8.09798 14.0489 7.94799 14.0489 7.76298C14.0489 7.57796 13.8989 7.42798 13.7139 7.42798C13.5289 7.42798 13.3789 7.57796 13.3789 7.76298C13.3789 7.94799 13.5289 8.09798 13.7139 8.09798Z" fill="#F05728"/>
<path d="M12.2635 8.08895C12.4198 8.08895 12.5465 7.96225 12.5465 7.80595C12.5465 7.64965 12.4198 7.52295 12.2635 7.52295C12.1072 7.52295 11.9805 7.64965 11.9805 7.80595C11.9805 7.96225 12.1072 8.08895 12.2635 8.08895Z" fill="#F05728"/>
<path d="M12.7859 8.39206C12.9179 8.39206 13.0249 8.28506 13.0249 8.15306C13.0249 8.02107 12.9179 7.91406 12.7859 7.91406C12.6539 7.91406 12.5469 8.02107 12.5469 8.15306C12.5469 8.28506 12.6539 8.39206 12.7859 8.39206Z" fill="#F05728"/>
<path d="M14.7624 9.13083C14.8944 9.13083 15.0014 9.02383 15.0014 8.89183C15.0014 8.75984 14.8944 8.65283 14.7624 8.65283C14.6304 8.65283 14.5234 8.75984 14.5234 8.89183C14.5234 9.02383 14.6304 9.13083 14.7624 9.13083Z" fill="#F05728"/>
<path d="M15.1399 9.24804C15.2376 9.24804 15.3169 9.1688 15.3169 9.07104C15.3169 8.97329 15.2376 8.89404 15.1399 8.89404C15.0421 8.89404 14.9629 8.97329 14.9629 9.07104C14.9629 9.1688 15.0421 9.24804 15.1399 9.24804Z" fill="#F05728"/>
<path d="M22.6145 16.623C22.7123 16.623 22.7915 16.5438 22.7915 16.446C22.7915 16.3483 22.7123 16.269 22.6145 16.269C22.5167 16.269 22.4375 16.3483 22.4375 16.446C22.4375 16.5438 22.5167 16.623 22.6145 16.623Z" fill="#F05728"/>
<path d="M15.2863 8.84216C15.6127 8.84216 15.8773 8.57756 15.8773 8.25116C15.8773 7.92476 15.6127 7.66016 15.2863 7.66016C14.9599 7.66016 14.6953 7.92476 14.6953 8.25116C14.6953 8.57756 14.9599 8.84216 15.2863 8.84216Z" fill="#F05728"/>
<path d="M16.574 8.99999C16.7982 8.99999 16.98 8.81822 16.98 8.59399C16.98 8.36976 16.7982 8.18799 16.574 8.18799C16.3497 8.18799 16.168 8.36976 16.168 8.59399C16.168 8.81822 16.3497 8.99999 16.574 8.99999Z" fill="#F05728"/>
<path d="M9.57452 12.1759C9.97271 12.1759 10.2955 11.8531 10.2955 11.4549C10.2955 11.0567 9.97271 10.7339 9.57452 10.7339C9.17632 10.7339 8.85352 11.0567 8.85352 11.4549C8.85352 11.8531 9.17632 12.1759 9.57452 12.1759Z" fill="#F05728"/>
<path d="M21.6553 20.3587C21.9197 20.2479 22.0441 19.9438 21.9333 19.6794C21.8225 19.4151 21.5184 19.2906 21.254 19.4014C20.9897 19.5122 20.8652 19.8163 20.976 20.0807C21.0868 20.345 21.391 20.4695 21.6553 20.3587Z" fill="#F05728"/>
<path d="M20.914 21.6949C21.3388 21.5168 21.5388 21.0281 21.3607 20.6033C21.1827 20.1785 20.6939 19.9785 20.2692 20.1566C19.8444 20.3347 19.6444 20.8234 19.8224 21.2482C20.0005 21.673 20.4892 21.873 20.914 21.6949Z" fill="#F05728"/>
<path d="M19.5361 21.1079C19.7276 21.0275 19.8177 20.8072 19.7373 20.6157C19.6569 20.4242 19.4366 20.3342 19.2451 20.4145C19.0536 20.4949 18.9636 20.7153 19.0439 20.9067C19.1243 21.0982 19.3447 21.1883 19.5361 21.1079Z" fill="#F05728"/>
<path d="M17.9457 21.2654C18.0685 21.214 18.1263 21.0727 18.0748 20.95C18.0233 20.8272 17.8821 20.7694 17.7594 20.8209C17.6366 20.8723 17.5788 21.0136 17.6303 21.1363C17.6817 21.2591 17.823 21.3169 17.9457 21.2654Z" fill="#F05728"/>
<path d="M19.6746 21.849C19.8661 21.7687 19.9563 21.5483 19.876 21.3568C19.7957 21.1653 19.5754 21.0751 19.3839 21.1554C19.1924 21.2357 19.1022 21.456 19.1825 21.6475C19.2628 21.8391 19.4831 21.9292 19.6746 21.849Z" fill="#F05728"/>
<path d="M19.3564 22.471C19.5321 22.3973 19.6149 22.1952 19.5412 22.0194C19.4676 21.8437 19.2654 21.761 19.0897 21.8346C18.9139 21.9083 18.8312 22.1105 18.9049 22.2862C18.9785 22.4619 19.1807 22.5447 19.3564 22.471Z" fill="#F05728"/>
<path d="M18.8921 21.7031C19.1329 21.602 19.2462 21.3248 19.1451 21.0839C19.044 20.8431 18.7668 20.7298 18.5259 20.8309C18.2851 20.932 18.1718 21.2092 18.2729 21.45C18.374 21.6909 18.6512 21.8042 18.8921 21.7031Z" fill="#F05728"/>
<path d="M18.591 22.5885C18.8319 22.4875 18.9454 22.2103 18.8444 21.9694C18.7434 21.7285 18.4662 21.6151 18.2253 21.7161C17.9844 21.8171 17.8709 22.0942 17.9719 22.3351C18.0729 22.5761 18.3501 22.6895 18.591 22.5885Z" fill="#F05728"/>
<path d="M17.5676 22.0187C17.8085 21.9177 17.9219 21.6405 17.8209 21.3996C17.7199 21.1587 17.4428 21.0452 17.2018 21.1462C16.9609 21.2472 16.8475 21.5244 16.9485 21.7653C17.0495 22.0062 17.3267 22.1197 17.5676 22.0187Z" fill="#F05728"/>
<path d="M16.4908 21.8531C16.7368 21.75 16.8526 21.4669 16.7495 21.2209C16.6464 20.9749 16.3633 20.8591 16.1173 20.9622C15.8713 21.0653 15.7555 21.3484 15.8586 21.5944C15.9617 21.8404 16.2448 21.9562 16.4908 21.8531Z" fill="#F05728"/>
<path d="M16.0848 20.8248C16.3307 20.7216 16.4464 20.4385 16.3432 20.1926C16.24 19.9466 15.9569 19.8309 15.711 19.9342C15.465 20.0374 15.3493 20.3205 15.4525 20.5664C15.5558 20.8124 15.8388 20.9281 16.0848 20.8248Z" fill="#F05728"/>
<path d="M16.7768 20.5497C16.9245 20.4878 16.9941 20.3179 16.9322 20.1702C16.8703 20.0225 16.7003 19.9529 16.5526 20.0148C16.4049 20.0768 16.3354 20.2467 16.3973 20.3944C16.4592 20.5421 16.6291 20.6117 16.7768 20.5497Z" fill="#F05728"/>
<path d="M18.701 19.8966C18.8365 19.8398 18.9003 19.6839 18.8435 19.5484C18.7867 19.413 18.6308 19.3492 18.4953 19.406C18.3598 19.4627 18.296 19.6186 18.3528 19.7541C18.4096 19.8896 18.5655 19.9534 18.701 19.8966Z" fill="#F05728"/>
<path d="M17.1707 20.2389C17.2695 20.1975 17.3161 20.0838 17.2746 19.985C17.2332 19.8862 17.1195 19.8396 17.0207 19.8811C16.9219 19.9225 16.8754 20.0362 16.9168 20.135C16.9582 20.2338 17.0719 20.2803 17.1707 20.2389Z" fill="#F05728"/>
<path d="M17.5299 20.6795C17.673 20.6195 17.7394 20.4524 17.6781 20.3062C17.6168 20.16 17.4511 20.0902 17.308 20.1502C17.1649 20.2102 17.0985 20.3773 17.1598 20.5235C17.2211 20.6697 17.3868 20.7395 17.5299 20.6795Z" fill="#F05728"/>
<path d="M15.3195 21.5839C15.5064 21.5055 15.5944 21.2905 15.5161 21.1035C15.4377 20.9166 15.2227 20.8286 15.0357 20.9069C14.8488 20.9853 14.7608 21.2004 14.8391 21.3873C14.9175 21.5742 15.1326 21.6622 15.3195 21.5839Z" fill="#F05728"/>
<path d="M14.8797 22.2553C15.0248 22.1945 15.0932 22.0275 15.0323 21.8823C14.9715 21.7372 14.8045 21.6688 14.6593 21.7297C14.5142 21.7905 14.4458 21.9575 14.5067 22.1027C14.5675 22.2478 14.7345 22.3162 14.8797 22.2553Z" fill="#F05728"/>
<path d="M15.2762 20.8545C15.4213 20.7936 15.4897 20.6266 15.4288 20.4814C15.368 20.3363 15.201 20.2679 15.0558 20.3288C14.9106 20.3896 14.8423 20.5566 14.9031 20.7018C14.964 20.847 15.131 20.9153 15.2762 20.8545Z" fill="#F05728"/>
<path d="M14.7621 20.549C14.9969 20.4506 15.1074 20.1805 15.009 19.9457C14.9106 19.7109 14.6404 19.6003 14.4056 19.6987C14.1708 19.7972 14.0603 20.0673 14.1587 20.3021C14.2571 20.5369 14.5273 20.6475 14.7621 20.549Z" fill="#F05728"/>
<path d="M15.7251 22.4532C15.9712 22.3501 16.087 22.067 15.9839 21.821C15.8807 21.575 15.5977 21.4592 15.3517 21.5623C15.1057 21.6654 14.9899 21.9485 15.093 22.1945C15.1961 22.4405 15.4791 22.5563 15.7251 22.4532Z" fill="#F05728"/>
</svg>
