<svg width="24" height="24" viewBox="0 0 24 24" fill="none" xmlns="http://www.w3.org/2000/svg">
<path d="M12.0006 0.000610352C5.38222 0.000610352 0 5.38408 0 12C0 18.6159 5.38222 23.9994 12.0006 23.9994C18.6165 23.9994 24 18.6159 24 12C24 5.38408 18.6165 0.000610352 12.0006 0.000610352ZM22.2351 12C22.2351 14.3411 21.4401 16.4998 20.1152 18.2247C19.7402 17.9322 19.3415 17.141 19.7165 16.321C20.0952 15.4961 20.1939 13.5862 20.1065 12.8424C20.024 12.1 19.6377 10.3113 18.589 10.2938C17.5416 10.2788 16.8229 9.93259 16.2004 8.69016C14.9092 6.10529 18.624 5.60907 17.3328 4.17914C16.9716 3.77666 15.1042 5.83156 14.8305 3.09295C14.813 2.89671 14.9992 2.60297 15.2505 2.29799C19.3052 3.66042 22.2351 7.49397 22.2351 12ZM10.5944 1.86676C10.3495 2.34424 9.70324 2.53798 9.31077 2.89671C8.45581 3.67042 8.08833 3.56292 7.62835 4.30539C7.16463 5.04785 5.6697 6.11654 5.6697 6.65401C5.6697 7.19149 6.42467 7.82395 6.80215 7.70146C7.17963 7.57647 8.17582 7.58397 8.76079 7.78895C9.34701 7.99644 13.653 8.20393 12.2806 11.8437C11.8456 13.0012 9.93948 12.8062 9.43201 14.7223C9.35576 15.0036 9.09203 16.2048 9.07578 16.5972C9.04453 17.2047 9.50575 19.4946 8.91953 19.4946C8.33082 19.4946 6.74715 17.446 6.74715 17.0747C6.74715 16.7035 6.33717 15.4023 6.33717 14.2874C6.33717 13.1737 4.43977 13.1912 4.43977 11.71C4.43977 10.3751 5.46847 9.7101 5.23723 9.06889C5.01099 8.43142 3.20358 8.41017 2.44987 8.33143C3.10889 6.62631 4.21127 5.12809 5.6431 3.9916C7.07492 2.8551 8.78425 2.12156 10.5944 1.86676ZM8.78079 21.712C9.39576 21.387 9.45826 20.967 10.0157 20.9458C10.6532 20.917 11.1719 20.697 11.8906 20.5383C12.5281 20.3995 13.6693 19.7521 14.673 19.6696C15.5204 19.6008 17.1916 19.7133 17.6416 20.5308C16.3513 21.3876 14.8828 21.9393 13.3475 22.144C11.8122 22.3486 10.2505 22.2009 8.78079 21.712Z" fill="#14144B" fill-opacity="0.6"/>
</svg>
