<svg width="25" height="24" viewBox="0 0 25 24" fill="none" xmlns="http://www.w3.org/2000/svg">
<path d="M22.2104 20.2899L18.5004 16.6099C19.9405 14.8143 20.6379 12.5352 20.4492 10.2412C20.2605 7.94721 19.2001 5.81269 17.4859 4.27655C15.7718 2.74041 13.5342 1.91941 11.2333 1.98237C8.93243 2.04534 6.74311 2.98747 5.11553 4.61505C3.48795 6.24263 2.54582 8.43194 2.48286 10.7328C2.4199 13.0337 3.2409 15.2713 4.77704 16.9854C6.31318 18.6996 8.44769 19.76 10.7417 19.9487C13.0357 20.1374 15.3148 19.44 17.1104 17.9999L20.7904 21.6799C20.8834 21.7736 20.994 21.848 21.1158 21.8988C21.2377 21.9496 21.3684 21.9757 21.5004 21.9757C21.6324 21.9757 21.7631 21.9496 21.885 21.8988C22.0068 21.848 22.1174 21.7736 22.2104 21.6799C22.3906 21.4934 22.4914 21.2442 22.4914 20.9849C22.4914 20.7256 22.3906 20.4764 22.2104 20.2899ZM11.5004 17.9999C10.1159 17.9999 8.76255 17.5894 7.6114 16.8202C6.46026 16.051 5.56305 14.9578 5.03324 13.6787C4.50342 12.3996 4.3648 10.9921 4.6349 9.63427C4.90499 8.27641 5.57168 7.02912 6.55065 6.05016C7.52961 5.07119 8.77689 4.4045 10.1348 4.13441C11.4926 3.86431 12.9001 4.00293 14.1792 4.53275C15.4583 5.06256 16.5515 5.95977 17.3207 7.11091C18.0899 8.26206 18.5004 9.61544 18.5004 10.9999C18.5004 12.8564 17.7629 14.6369 16.4501 15.9497C15.1374 17.2624 13.3569 17.9999 11.5004 17.9999Z" fill="#616161"/>
</svg>
