<svg width="21" height="21" viewBox="0 0 21 21" fill="none" xmlns="http://www.w3.org/2000/svg">
<path d="M20.6684 19.29L16.9584 15.61C18.3985 13.8144 19.0959 11.5353 18.9072 9.24133C18.7185 6.94733 17.6581 4.81281 15.9439 3.27667C14.2298 1.74053 11.9922 0.919537 9.69132 0.982497C7.39044 1.04546 5.20112 1.98759 3.57354 3.61517C1.94596 5.24275 1.00383 7.43207 0.940871 9.73295C0.877911 12.0338 1.69891 14.2714 3.23504 15.9855C4.77118 17.6997 6.9057 18.7601 9.1997 18.9488C11.4937 19.1375 13.7728 18.4401 15.5684 17L19.2484 20.68C19.3414 20.7738 19.452 20.8482 19.5738 20.8989C19.6957 20.9497 19.8264 20.9758 19.9584 20.9758C20.0904 20.9758 20.2211 20.9497 20.343 20.8989C20.4648 20.8482 20.5754 20.7738 20.6684 20.68C20.8486 20.4936 20.9494 20.2444 20.9494 19.985C20.9494 19.7257 20.8486 19.4765 20.6684 19.29ZM9.9584 17C8.57393 17 7.22055 16.5895 6.06941 15.8203C4.91826 15.0511 4.02106 13.9579 3.49124 12.6788C2.96143 11.3997 2.82281 9.99226 3.0929 8.63439C3.363 7.27653 4.02969 6.02925 5.00865 5.05028C5.98762 4.07131 7.2349 3.40463 8.59277 3.13453C9.95064 2.86443 11.3581 3.00306 12.6372 3.53287C13.9163 4.06268 15.0095 4.95989 15.7787 6.11103C16.5479 7.26218 16.9584 8.61556 16.9584 10C16.9584 11.8565 16.2209 13.637 14.9081 14.9498C13.5954 16.2625 11.8149 17 9.9584 17Z" fill="#4251FF"/>
</svg>
