<svg width="20" height="21" viewBox="0 0 20 21" fill="none" xmlns="http://www.w3.org/2000/svg">
<path d="M7.15833 11.7583L12.85 15.075M12.8417 5.92496L7.15833 9.24163M17.5 4.66663C17.5 6.04734 16.3807 7.16663 15 7.16663C13.6193 7.16663 12.5 6.04734 12.5 4.66663C12.5 3.28591 13.6193 2.16663 15 2.16663C16.3807 2.16663 17.5 3.28591 17.5 4.66663ZM7.5 10.5C7.5 11.8807 6.38071 13 5 13C3.61929 13 2.5 11.8807 2.5 10.5C2.5 9.11925 3.61929 7.99996 5 7.99996C6.38071 7.99996 7.5 9.11925 7.5 10.5ZM17.5 16.3333C17.5 17.714 16.3807 18.8333 15 18.8333C13.6193 18.8333 12.5 17.714 12.5 16.3333C12.5 14.9526 13.6193 13.8333 15 13.8333C16.3807 13.8333 17.5 14.9526 17.5 16.3333Z" stroke="#14144B" stroke-opacity="0.6" stroke-width="1.67" stroke-linecap="round" stroke-linejoin="round"/>
</svg>
