<svg width="21" height="21" viewBox="0 0 21 21" fill="none" xmlns="http://www.w3.org/2000/svg">
<path d="M7.65833 11.7584L13.35 15.075M13.3417 5.92502L7.65833 9.24169M18 4.66669C18 6.0474 16.8807 7.16669 15.5 7.16669C14.1193 7.16669 13 6.0474 13 4.66669C13 3.28598 14.1193 2.16669 15.5 2.16669C16.8807 2.16669 18 3.28598 18 4.66669ZM8 10.5C8 11.8807 6.88071 13 5.5 13C4.11929 13 3 11.8807 3 10.5C3 9.11931 4.11929 8.00002 5.5 8.00002C6.88071 8.00002 8 9.11931 8 10.5ZM18 16.3334C18 17.7141 16.8807 18.8334 15.5 18.8334C14.1193 18.8334 13 17.7141 13 16.3334C13 14.9526 14.1193 13.8334 15.5 13.8334C16.8807 13.8334 18 14.9526 18 16.3334Z" stroke="#939596" stroke-width="1.67" stroke-linecap="round" stroke-linejoin="round"/>
</svg>
