<svg width="20" height="21" viewBox="0 0 20 21" fill="none" xmlns="http://www.w3.org/2000/svg">
<path d="M7.15833 11.7584L12.85 15.075M12.8417 5.92502L7.15833 9.24169M17.5 4.66669C17.5 6.0474 16.3807 7.16669 15 7.16669C13.6193 7.16669 12.5 6.0474 12.5 4.66669C12.5 3.28598 13.6193 2.16669 15 2.16669C16.3807 2.16669 17.5 3.28598 17.5 4.66669ZM7.5 10.5C7.5 11.8807 6.38071 13 5 13C3.61929 13 2.5 11.8807 2.5 10.5C2.5 9.11931 3.61929 8.00002 5 8.00002C6.38071 8.00002 7.5 9.11931 7.5 10.5ZM17.5 16.3334C17.5 17.7141 16.3807 18.8334 15 18.8334C13.6193 18.8334 12.5 17.7141 12.5 16.3334C12.5 14.9526 13.6193 13.8334 15 13.8334C16.3807 13.8334 17.5 14.9526 17.5 16.3334Z" stroke="#939596" stroke-width="1.67" stroke-linecap="round" stroke-linejoin="round"/>
</svg>
