<svg width="37" height="37" viewBox="0 0 37 37" fill="none" xmlns="http://www.w3.org/2000/svg">
<path d="M0.5 8.5C0.5 4.08172 4.08172 0.5 8.5 0.5H28.5C32.9183 0.5 36.5 4.08172 36.5 8.5V28.5C36.5 32.9183 32.9183 36.5 28.5 36.5H8.5C4.08172 36.5 0.5 32.9183 0.5 28.5V8.5Z" fill="white"/>
<path d="M15.6583 19.7584L21.35 23.0751M21.3417 13.9251L15.6583 17.2417M26 12.6667C26 14.0475 24.8807 15.1667 23.5 15.1667C22.1193 15.1667 21 14.0475 21 12.6667C21 11.286 22.1193 10.1667 23.5 10.1667C24.8807 10.1667 26 11.286 26 12.6667ZM16 18.5001C16 19.8808 14.8807 21.0001 13.5 21.0001C12.1193 21.0001 11 19.8808 11 18.5001C11 17.1194 12.1193 16.0001 13.5 16.0001C14.8807 16.0001 16 17.1194 16 18.5001ZM26 24.3334C26 25.7141 24.8807 26.8334 23.5 26.8334C22.1193 26.8334 21 25.7141 21 24.3334C21 22.9527 22.1193 21.8334 23.5 21.8334C24.8807 21.8334 26 22.9527 26 24.3334Z" stroke="#939596" stroke-width="1.67" stroke-linecap="round" stroke-linejoin="round"/>
<path d="M8.5 1.5H28.5V-0.5H8.5V1.5ZM35.5 8.5V28.5H37.5V8.5H35.5ZM28.5 35.5H8.5V37.5H28.5V35.5ZM1.5 28.5V8.5H-0.5V28.5H1.5ZM8.5 35.5C4.63401 35.5 1.5 32.366 1.5 28.5H-0.5C-0.5 33.4706 3.52944 37.5 8.5 37.5V35.5ZM35.5 28.5C35.5 32.366 32.366 35.5 28.5 35.5V37.5C33.4706 37.5 37.5 33.4706 37.5 28.5H35.5ZM28.5 1.5C32.366 1.5 35.5 4.63401 35.5 8.5H37.5C37.5 3.52944 33.4706 -0.5 28.5 -0.5V1.5ZM8.5 -0.5C3.52944 -0.5 -0.5 3.52944 -0.5 8.5H1.5C1.5 4.63401 4.63401 1.5 8.5 1.5V-0.5Z" fill="white"/>
</svg>
