<svg width="25" height="24" viewBox="0 0 25 24" fill="none" xmlns="http://www.w3.org/2000/svg">
<path d="M22.1465 0H3.77148C2.22067 0 0.958984 1.26169 0.958984 2.8125V21.1875C0.958984 22.7383 2.22067 24 3.77148 24H22.1465C23.6973 24 24.959 22.7383 24.959 21.1875V2.8125C24.959 1.26169 23.6973 0 22.1465 0ZM6.58398 22.125H3.77148C3.25455 22.125 2.83398 21.7044 2.83398 21.1875V7.5H6.58398V22.125ZM6.58398 5.625H2.83398V2.8125C2.83398 2.29556 3.25455 1.875 3.77148 1.875H6.58398V5.625ZM23.084 21.1875C23.084 21.7044 22.6634 22.125 22.1465 22.125H8.45898V7.5H23.084V21.1875ZM23.084 5.625H8.45898V1.875H22.1465C22.6634 1.875 23.084 2.29556 23.084 2.8125V5.625Z" fill="#444CE7"/>
</svg>
