<svg width="24" height="24" viewBox="0 0 24 24"  fill="none" xmlns="http://www.w3.org/2000/svg">
<path d="M21.1875 0H2.8125C1.26169 0 0 1.26169 0 2.8125V21.1875C0 22.7383 1.26169 24 2.8125 24H21.1875C22.7383 24 24 22.7383 24 21.1875V2.8125C24 1.26169 22.7383 0 21.1875 0ZM5.625 22.125H2.8125C2.29556 22.125 1.875 21.7044 1.875 21.1875V7.5H5.625V22.125ZM5.625 5.625H1.875V2.8125C1.875 2.29556 2.29556 1.875 2.8125 1.875H5.625V5.625ZM22.125 21.1875C22.125 21.7044 21.7044 22.125 21.1875 22.125H7.5V7.5H22.125V21.1875ZM22.125 5.625H7.5V1.875H21.1875C21.7044 1.875 22.125 2.29556 22.125 2.8125V5.625Z" fill="#424242"/>
</svg>
