<svg width="22" height="6" viewBox="0 0 22 6" fill="none" xmlns="http://www.w3.org/2000/svg">
<path d="M3 5.75C4.51878 5.75 5.75 4.51878 5.75 3C5.75 1.48122 4.51878 0.25 3 0.25C1.48122 0.25 0.25 1.48122 0.25 3C0.25 4.51878 1.48122 5.75 3 5.75Z" fill="#F05728"/>
<path d="M11 5.75C12.5188 5.75 13.75 4.51878 13.75 3C13.75 1.48122 12.5188 0.25 11 0.25C9.48122 0.25 8.25 1.48122 8.25 3C8.25 4.51878 9.48122 5.75 11 5.75Z" fill="#F05728"/>
<path d="M19 5.75C20.5188 5.75 21.75 4.51878 21.75 3C21.75 1.48122 20.5188 0.25 19 0.25C17.4812 0.25 16.25 1.48122 16.25 3C16.25 4.51878 17.4812 5.75 19 5.75Z" fill="#F05728"/>
</svg>
