<svg width="46" height="47" viewBox="0 0 46 47" fill="none" xmlns="http://www.w3.org/2000/svg">
<rect x="0.5" y="1" width="45" height="45" rx="7.5" stroke="#616161"/>
<path d="M23 33.5C17.477 33.5 13 29.023 13 23.5C13 19.022 15.943 15.232 20 13.958V16.082C18.2809 16.78 16.8578 18.0537 15.9741 19.6851C15.0903 21.3165 14.8009 23.2043 15.1553 25.0255C15.5096 26.8468 16.4858 28.4883 17.9168 29.6693C19.3477 30.8503 21.1446 31.4975 23 31.5C24.5938 31.5 26.1513 31.024 27.4728 30.1332C28.7944 29.2424 29.82 27.9773 30.418 26.5H32.542C31.268 30.557 27.478 33.5 23 33.5ZM32.95 24.5H22V13.55C22.329 13.517 22.663 13.5 23 13.5C28.523 13.5 33 17.977 33 23.5C33 23.837 32.983 24.171 32.95 24.5ZM24 15.562V22.5H30.938C30.7154 20.7376 29.9129 19.0993 28.6568 17.8432C27.4007 16.5871 25.7624 15.7846 24 15.562Z" fill="#9E9E9E"/>
</svg>
