<svg width="46" height="47" viewBox="0 0 46 47" fill="none" xmlns="http://www.w3.org/2000/svg">
<rect x="0.5" y="1" width="45" height="45" rx="7.5" stroke="#616161"/>
<path d="M21 25.5V27.5C19.4087 27.5 17.8826 28.1321 16.7574 29.2574C15.6321 30.3826 15 31.9087 15 33.5H13C13 31.3783 13.8429 29.3434 15.3431 27.8431C16.8434 26.3429 18.8783 25.5 21 25.5ZM21 24.5C17.685 24.5 15 21.815 15 18.5C15 15.185 17.685 12.5 21 12.5C24.315 12.5 27 15.185 27 18.5C27 21.815 24.315 24.5 21 24.5ZM21 22.5C23.21 22.5 25 20.71 25 18.5C25 16.29 23.21 14.5 21 14.5C18.79 14.5 17 16.29 17 18.5C17 20.71 18.79 22.5 21 22.5ZM27 33L24.061 34.545L24.622 31.273L22.245 28.955L25.531 28.477L27 25.5L28.47 28.477L31.755 28.955L29.378 31.273L29.938 34.545L27 33Z" fill="#9E9E9E"/>
</svg>
