<svg width="46" height="47" viewBox="0 0 46 47" fill="none" xmlns="http://www.w3.org/2000/svg">
<rect x="0.5" y="1" width="45" height="45" rx="7.5" stroke="#616161"/>
<path d="M23 33.5C17.477 33.5 13 29.023 13 23.5C13 17.977 17.477 13.5 23 13.5C28.523 13.5 33 17.977 33 23.5C33 29.023 28.523 33.5 23 33.5ZM23 31.5C25.1217 31.5 27.1566 30.6571 28.6569 29.1569C30.1571 27.6566 31 25.6217 31 23.5C31 21.3783 30.1571 19.3434 28.6569 17.8431C27.1566 16.3429 25.1217 15.5 23 15.5C20.8783 15.5 18.8434 16.3429 17.3431 17.8431C15.8429 19.3434 15 21.3783 15 23.5C15 25.6217 15.8429 27.6566 17.3431 29.1569C18.8434 30.6571 20.8783 31.5 23 31.5ZM23 18.55L27.95 23.5L23 28.45L18.05 23.5L23 18.55ZM23 21.379L20.879 23.5L23 25.621L25.121 23.5L23 21.379Z" fill="#9E9E9E"/>
</svg>
