<svg width="25" height="24" viewBox="0 0 25 24" fill="none" xmlns="http://www.w3.org/2000/svg">
<path d="M24.1425 4.93708C23.3075 5.30708 22.4105 5.55708 21.4675 5.67008C22.4405 5.08787 23.1685 4.17154 23.5155 3.09208C22.6014 3.63507 21.6009 4.01727 20.5575 4.22208C19.8559 3.47294 18.9266 2.9764 17.9138 2.80955C16.9011 2.6427 15.8616 2.81487 14.9568 3.29933C14.0519 3.78379 13.3323 4.55344 12.9097 5.48878C12.4871 6.42412 12.3851 7.47283 12.6195 8.47208C10.7672 8.37907 8.95515 7.89763 7.30095 7.05898C5.64674 6.22034 4.18736 5.04324 3.01752 3.60408C2.61752 4.29408 2.38752 5.09408 2.38752 5.94608C2.38708 6.71307 2.57596 7.46832 2.9374 8.14481C3.29885 8.8213 3.82168 9.39812 4.45952 9.82408C3.7198 9.80054 2.9964 9.60066 2.34952 9.24108V9.30108C2.34945 10.3768 2.72156 11.4195 3.40271 12.2521C4.08386 13.0847 5.03209 13.656 6.08652 13.8691C5.40031 14.0548 4.68086 14.0821 3.98252 13.9491C4.28002 14.8747 4.85952 15.6841 5.63989 16.264C6.42026 16.8439 7.36244 17.1653 8.33452 17.1831C6.68436 18.4785 4.64641 19.1812 2.54852 19.1781C2.1769 19.1782 1.8056 19.1565 1.43652 19.1131C3.566 20.4823 6.04486 21.2089 8.57652 21.2061C17.1465 21.2061 21.8315 14.1081 21.8315 7.95208C21.8315 7.75208 21.8265 7.55008 21.8175 7.35008C22.7288 6.69105 23.5154 5.87497 24.1405 4.94008L24.1425 4.93708Z" fill="#1DA1F2"/>
</svg>
