<svg width="40" height="40" viewBox="0 0 40 40" fill="none" xmlns="http://www.w3.org/2000/svg">
<rect y="0.000732422" width="40" height="39.9987" rx="4" fill="#F05728" fill-opacity="0.2"/>
<path d="M20.0006 8.00073C13.3822 8.00073 8 13.3842 8 20.0001C8 26.616 13.3822 31.9995 20.0006 31.9995C26.6165 31.9995 32 26.616 32 20.0001C32 13.3842 26.6165 8.00073 20.0006 8.00073ZM30.2351 20.0001C30.2351 22.3412 29.4401 24.4999 28.1152 26.2248C27.7402 25.9323 27.3415 25.1411 27.7165 24.3211C28.0952 23.4962 28.1939 21.5863 28.1065 20.8426C28.024 20.1001 27.6377 18.3114 26.589 18.2939C25.5416 18.2789 24.8229 17.9327 24.2004 16.6903C22.9092 14.1054 26.624 13.6092 25.3328 12.1793C24.9716 11.7768 23.1042 13.8317 22.8305 11.0931C22.813 10.8968 22.9992 10.6031 23.2505 10.2981C27.3052 11.6605 30.2351 15.4941 30.2351 20.0001ZM18.5944 9.86689C18.3495 10.3444 17.7032 10.5381 17.3108 10.8968C16.4558 11.6705 16.0883 11.563 15.6284 12.3055C15.1646 13.048 13.6697 14.1167 13.6697 14.6541C13.6697 15.1916 14.4247 15.8241 14.8021 15.7016C15.1796 15.5766 16.1758 15.5841 16.7608 15.7891C17.347 15.9966 21.653 16.2041 20.2806 19.8439C19.8456 21.0013 17.9395 20.8063 17.432 22.7225C17.3558 23.0037 17.092 24.2049 17.0758 24.5974C17.0445 25.2048 17.5058 27.4947 16.9195 27.4947C16.3308 27.4947 14.7471 25.4461 14.7471 25.0748C14.7471 24.7036 14.3372 23.4024 14.3372 22.2875C14.3372 21.1738 12.4398 21.1913 12.4398 19.7101C12.4398 18.3752 13.4685 17.7102 13.2372 17.069C13.011 16.4315 11.2036 16.4103 10.4499 16.3315C11.1089 14.6264 12.2113 13.1282 13.6431 11.9917C15.0749 10.8552 16.7842 10.1217 18.5944 9.86689ZM16.7808 29.7121C17.3958 29.3871 17.4583 28.9671 18.0157 28.9459C18.6532 28.9171 19.1719 28.6972 19.8906 28.5384C20.5281 28.3997 21.6693 27.7522 22.673 27.6697C23.5204 27.601 25.1916 27.7135 25.6416 28.5309C24.3513 29.3877 22.8828 29.9394 21.3475 30.1441C19.8122 30.3487 18.2505 30.201 16.7808 29.7121Z" fill="#424242"/>
</svg>
